<?xml version="1.0" encoding="utf-8"?>
<!-- Generator: Adobe Illustrator 16.0.4, SVG Export Plug-In . SVG Version: 6.00 Build 0)  -->
<!DOCTYPE svg PUBLIC "-//W3C//DTD SVG 1.1//EN" "http://www.w3.org/Graphics/SVG/1.1/DTD/svg11.dtd">
<svg version="1.1" id="Layer_1" xmlns="http://www.w3.org/2000/svg" xmlns:xlink="http://www.w3.org/1999/xlink" x="0px" y="0px"
	 width="640px" height="480px" viewBox="0 0 640 480" enable-background="new 0 0 640 480" xml:space="preserve">
<g>
	<path fill-rule="evenodd" clip-rule="evenodd" fill="#EC4A46" d="M99.752,150.733c-0.462,0.651-0.854,1.367-1.399,1.94
		c-2.038,2.146-2.795,4.749-3.143,7.619c-0.686,5.695-1.562,11.366-2.312,17.053c-0.109,0.83-0.387,1.338-1.144,1.753
		c-3.94,2.145-8.116,3.448-12.609,3.68c-0.34,0.15-0.685,0.012-1.027,0.013c-0.331,0.018-0.676-0.168-0.992,0.065
		c-1.41-0.118-2.82-0.236-4.229-0.354c-0.239-0.269-0.575-0.152-0.866-0.217c-0.186-0.016-0.374-0.032-0.56-0.047
		c-0.189-0.02-0.383-0.012-0.54-0.143c-4.633-1.077-8.878-3.017-12.792-5.714c-0.764-0.526-1.075-1.094-1.055-2.077
		c0.136-6.815,0.181-13.633,0.276-20.446c0.008-0.604-0.205-1.1-0.464-1.601c-0.951-1.836-1.919-3.662-2.833-5.518
		c-0.151-0.309-0.654-0.611-0.244-1.072c0.225-0.114,0.409,0.012,0.6,0.102c0.179,0.096,0.352,0.207,0.53,0.308
		c0.086,0.047,0.169,0.1,0.25,0.154c0.119,0.079,0.236,0.163,0.36,0.232c0.085,0.04,0.167,0.087,0.245,0.139
		c0.125,0.065,0.255,0.125,0.39,0.173c0.144,0.043,0.281,0.098,0.416,0.161c0.144,0.064,0.289,0.124,0.438,0.179
		c0.165,0.051,0.324,0.108,0.483,0.169c0.182,0.058,0.362,0.115,0.544,0.168c0.818,0.254,1.589,0.65,2.451,0.771
		c3.569,1.055,7.205,1.75,10.89,2.284c2.471,0.36,4.939,0.739,7.428,0.843c4.084,0.17,8.172,0.331,12.252-0.07
		c1.42-0.008,2.818-0.273,4.227-0.417c0.259-0.033,0.523-0.048,0.782-0.097c0.175-0.038,0.352-0.063,0.53-0.091
		c0.166-0.037,0.332-0.073,0.496-0.112c0.16-0.041,0.322-0.058,0.486-0.064c0.212-0.016,0.421-0.046,0.624-0.12
		c0.103-0.043,0.206-0.081,0.311-0.118c0.164-0.067,0.331-0.119,0.507-0.14c0.191-0.012,0.361,0.062,0.53,0.136
		C99.763,150.377,99.856,150.521,99.752,150.733z"/>
	<path fill-rule="evenodd" clip-rule="evenodd" fill="#EC4A46" d="M116.019,77.346c-2.617,1.599-5.593,1.824-8.52,2.107
		c-10.786,1.05-21.535,0.56-32.257-0.904c-6.166-0.842-12.265-1.971-18.206-3.853c-1.435-0.455-2.859-0.952-4.149-1.751
		c-0.504-0.311-1.219-0.566-1.094-1.307c0.12-0.71,0.863-0.796,1.436-0.957c2.146-0.601,4.36-0.731,6.569-0.821
		c7.254-0.296,14.493,0.011,21.731,0.552c2.056,0.153,4.108,0.404,6.275,0.545c0.901-2.558,1.79-5.076,2.675-7.593
		c0.719-2.04,1.441-4.077,2.145-6.124c0.156-0.451,0.334-0.848,0.712-1.182c6.025-5.344,12.039-10.703,18.058-16.055
		c0.068-0.062,0.156-0.103,0.344-0.222c1.303,1.154,2.628,2.33,4.037,3.578c-2.938,2.758-5.814,5.456-8.691,8.155
		c-2.507,2.354-5.015,4.706-7.525,7.054c-0.415,0.388-0.751,0.801-0.958,1.357c-1.373,3.702-2.782,7.389-4.172,11.085
		c-0.047,0.125-0.026,0.276-0.045,0.482c0.997,0.373,2.075,0.427,3.129,0.573c5.132,0.71,10.249,1.485,15.219,3.007
		c1.213,0.369,2.388,0.815,3.335,1.708C116.05,76.97,116.035,77.158,116.019,77.346z"/>
	<path fill-rule="evenodd" clip-rule="evenodd" fill="#F6AF9D" d="M78.04,182.69c0.369,0.03,0.737,0.061,1.107,0.089
		c-0.027,0.079-0.042,0.16-0.045,0.242c-0.376-0.031-0.751-0.064-1.127-0.094c-0.091-0.082-0.11-0.145-0.062-0.188
		C77.955,182.704,77.997,182.685,78.04,182.69z"/>
	<path fill-rule="evenodd" clip-rule="evenodd" fill="#F17262" d="M78.04,182.69c-0.026,0.077-0.048,0.159-0.065,0.237
		c-0.283-0.023-0.564-0.049-0.847-0.07C77.378,182.515,77.713,182.622,78.04,182.69z"/>
	<path fill-rule="evenodd" clip-rule="evenodd" fill="#F2806F" d="M72.06,182.169c0.316,0.021,0.667-0.049,0.839,0.333
		c-0.283-0.022-0.565-0.045-0.847-0.069c-0.084-0.061-0.112-0.119-0.081-0.177C72.003,182.197,72.033,182.169,72.06,182.169z"/>
	<path fill-rule="evenodd" clip-rule="evenodd" fill="#F4A18F" d="M72.06,182.169c0.008,0.088,0.005,0.177-0.007,0.264
		c-0.188-0.015-0.376-0.031-0.564-0.046c-0.082-0.056-0.109-0.109-0.082-0.163c0.029-0.056,0.054-0.083,0.082-0.082
		C71.679,182.152,71.869,182.162,72.06,182.169z"/>
	<path fill-rule="evenodd" clip-rule="evenodd" fill="#FAD3C7" d="M71.489,182.142c0.007,0.084,0.007,0.162,0,0.245
		c-0.188-0.018-0.376-0.033-0.564-0.047c0.009-0.081,0.012-0.161,0.009-0.244C71.118,182.114,71.303,182.128,71.489,182.142z"/>
	<path fill-rule="evenodd" clip-rule="evenodd" fill="#EC4A46" d="M115.568,79.035c-0.014,0.375-0.025,0.75-0.036,1.125
		c-1.59,7.88-3.183,15.759-4.769,23.638c-0.844,4.194-1.688,8.389-2.506,12.587c-0.097,0.487-0.245,0.863-0.666,1.166
		c-1.798,1.286-3.542,2.649-5.442,3.786c-0.599,0.359-1.217,0.753-1.938,0.31c-0.188-0.689,0.361-0.956,0.7-1.303
		c1.282-1.31,2.635-2.554,3.744-4.026c0.456-0.601,0.891-1.217,1.158-1.924c0.679-1.801-0.152-3.184-2.053-3.492
		c-0.975-0.158-1.866,0.075-2.723,0.5c-1.145,0.569-2.177,1.304-3.094,2.197c-0.097,0.097-0.19,0.086-0.275-0.018
		c0.091-0.414,0.186-0.824,0.271-1.238c0.116-0.573-0.045-1.051-0.592-1.292c-0.483-0.21-0.917-0.049-1.268,0.347
		c-0.797,0.897-1.276,1.979-1.685,3.079c-0.356,0.96-0.92,1.676-1.749,2.298c-1.436,1.074-2.835,2.191-4.433,3.011
		c-0.532,0.272-1.079,0.598-1.746,0.449c-0.703-0.672-0.188-1.367,0.08-1.94c1.136-2.424,2.337-4.822,3.554-7.208
		c1.602-3.14,3.247-6.258,4.868-9.386c0.151-0.292,0.303-0.586,0.408-0.896c0.226-0.669,0.261-1.288-0.483-1.71
		c-0.705-0.399-1.263-0.111-1.796,0.325c-0.333,0.275-0.5,0.673-0.688,1.054c-2.88,5.863-5.883,11.666-8.643,17.586
		c-0.431,0.928-2.342,2.039-3.373,1.957c-0.57-0.045-0.847-0.352-0.788-0.932c0.082-0.805,0.38-1.548,0.668-2.295
		c0.653-1.672,1.603-3.192,2.401-4.788c0.273-0.546,0.566-1.09,0.527-1.736c-0.03-0.512-0.236-0.912-0.727-1.108
		c-0.5-0.2-0.917-0.038-1.268,0.347c-0.584,0.638-0.892,1.43-1.243,2.2c-0.967,2.112-2.195,4.046-3.852,5.693
		c-0.712,0.708-1.51,1.292-2.491,1.537c-1.328,0.332-1.801-0.101-1.534-1.435c0.31-1.54,1.053-2.911,1.845-4.248
		c0.55-0.932,1.167-1.824,1.711-2.756c0.348-0.598,0.571-1.269-0.153-1.751c-0.658-0.436-1.348-0.37-1.938,0.182
		c-0.204,0.19-0.38,0.422-0.523,0.661c-1.548,2.585-2.959,5.241-3.952,8.093c-0.439,1.263-0.822,2.619,0.25,3.727
		c1.044,1.078,2.441,0.905,3.73,0.548c1.827-0.507,3.273-1.607,4.324-3.204c0.067-0.117,0.142-0.118,0.224-0.017
		c0.009,0.797-0.436,1.522-0.305,2.351c0.212,1.336,0.9,1.888,2.232,1.667c1.261-0.209,2.349-0.854,3.449-1.461
		c0.885,2.002,1.816,2.442,3.893,1.809c1.453-0.443,2.686-1.3,3.903-2.174c0.275-0.035,0.406,0.054,0.292,0.348
		c-1.438,2.587-2.886,5.169-4.305,7.768c-0.293,0.534-0.528,1.108-0.704,1.69c-0.164,0.549-0.201,1.128,0.365,1.531
		c0.572,0.407,1.165,0.336,1.727,0.003c0.817-0.484,1.177-1.323,1.542-2.14c1.455-3.267,3.051-6.464,4.832-9.566
		c1.328-2.309,2.921-4.398,5.14-5.924c0.921-0.634,1.918-1.185,3.098-0.61c0.187,0.834-0.326,1.311-0.757,1.783
		c-1.139,1.254-2.336,2.458-3.469,3.716c-0.532,0.59-1.065,1.218-1.434,1.916c-0.74,1.401-0.101,2.664,1.452,2.984
		c1.188,0.244,2.332,0.043,3.452-0.413c1.894-0.776,3.447-2.083,5.186-3.337c0.179,0.423,0.052,0.78-0.014,1.107
		c-1.196,6-2.402,12-3.604,18c-0.419,2.076-0.786,4.165-1.265,6.227c-0.384,1.651-1.271,2.995-2.834,3.798
		c-0.151,0.161-0.346,0.247-0.548,0.32c-0.101,0.033-0.201,0.065-0.3,0.102c-0.205,0.037-0.412,0.072-0.604,0.166
		c-0.1,0.035-0.203,0.056-0.305,0.073c-0.212,0.01-0.421,0.032-0.622,0.11c-0.155,0.061-0.312,0.104-0.476,0.118
		c-0.175,0.021-0.339,0.077-0.503,0.133c-0.242,0.089-0.495,0.051-0.742,0.077c-0.202,0.053-0.393,0.132-0.6,0.166
		c-1.511,0.097-3.012,0.273-4.514,0.459c-4.357,0.15-8.719,0.175-13.051-0.223c-5.218-0.476-10.414-1.192-15.472-2.651
		c-0.224-0.065-0.467-0.062-0.695-0.109c-0.748-0.317-1.542-0.502-2.306-0.773c-0.241-0.099-0.456-0.264-0.723-0.3
		c-0.179-0.024-0.356-0.062-0.513-0.155c-0.15-0.076-0.298-0.16-0.463-0.208c-0.157-0.04-0.302-0.109-0.442-0.193
		c-0.138-0.077-0.282-0.139-0.436-0.177c-0.155-0.04-0.291-0.12-0.427-0.196c-0.136-0.081-0.277-0.151-0.417-0.227
		c-0.14-0.081-0.306-0.094-0.447-0.177c-0.16-0.157-0.368-0.236-0.558-0.343c-0.144-0.16-0.385-0.239-0.425-0.492
		c-0.933-1.156-1.492-2.378-1.495-3.963c-0.011-6.404-0.158-12.81-0.247-19.214c-0.008-0.56,0.039-1.119,0.069-1.836
		c2.145,1.358,4.057,0.636,5.91-0.405c1.523-0.855,2.902-1.919,4.345-3.035c-0.59,1.491-1.201,2.975-1.766,4.477
		c-0.36,0.964-0.822,1.908-0.815,2.978c0.004,0.49,0.037,0.974,0.549,1.201c0.521,0.229,0.908-0.086,1.249-0.427
		c0.508-0.508,0.825-1.138,1.075-1.806c1.607-4.27,3.188-8.55,5.19-12.661c0.495-1.016,0.874-2.08,0.986-3.225
		c0.071-0.72-0.021-1.367-0.792-1.611c-0.729-0.227-1.338,0.128-1.666,0.75c-0.525,0.995-0.968,2.037-1.399,3.077
		c-1.51,3.631-4.366,5.972-7.669,7.796c-1.909,1.057-3.037,0.257-3.104-1.964c-0.071-2.323,0.724-4.43,1.663-6.496
		c1.647-3.636,3.787-6.937,6.722-9.68c0.761-0.71,1.601-1.317,2.571-1.716c1.68-0.692,2.928-0.259,3.814,1.319
		c0.346,0.615,0.603,1.288,1.011,1.855c0.631,0.879,1.464,0.796,2.004-0.147c0.432-0.755,0.379-1.541,0.047-2.312
		c-1.42-3.31-4.73-4.699-8.068-3.332c-3.111,1.273-5.366,3.608-7.382,6.198c-1.858,2.386-3.31,5.015-4.671,7.796
		c-0.143-11.716-0.285-23.436-0.427-35.183c8.845,3.844,18.095,5.458,27.474,6.533c8.917,1.021,17.849,1.298,26.798,0.494
		C109.152,80.475,112.409,80.032,115.568,79.035z"/>
	<path fill-rule="evenodd" clip-rule="evenodd" fill="#FFFFFF" d="M53.891,145.307c0.207,0.082,0.424,0.146,0.523,0.376
		c0.137,0.129,0.12,0.234-0.052,0.312c-0.243-0.003-0.388-0.172-0.54-0.326C53.845,145.548,53.869,145.428,53.891,145.307z"/>
	<path fill-rule="evenodd" clip-rule="evenodd" fill="#F18775" d="M99.752,150.733c-0.117-0.135-0.233-0.269-0.352-0.403
		c-0.019-0.045-0.036-0.091-0.056-0.137c0.043-0.024,0.086-0.049,0.126-0.073c0.221-0.001,0.456-0.092,0.652,0.091
		C100.09,150.449,99.984,150.635,99.752,150.733z"/>
	<path fill-rule="evenodd" clip-rule="evenodd" fill="#F38F7D" d="M91.07,121.274c-0.098-0.117-0.194-0.233-0.292-0.348
		c0.144-0.249,0.342-0.423,0.632-0.472c0.075,0.055,0.104,0.116,0.091,0.181c-0.016,0.07-0.035,0.105-0.058,0.104
		C91.381,120.96,91.289,121.159,91.07,121.274z"/>
	<path fill-rule="evenodd" clip-rule="evenodd" fill="#FCD6CA" d="M98.859,150.006c0.162-0.202,0.377-0.245,0.62-0.201
		c-0.002,0.105-0.003,0.209-0.007,0.314l0.005-0.031C99.25,150.225,99.043,150.203,98.859,150.006z"/>
	<path fill-rule="evenodd" clip-rule="evenodd" fill="#FCD8CD" d="M91.444,120.739c-0.011-0.095-0.021-0.19-0.033-0.284
		c0.065-0.042,0.132-0.082,0.195-0.123C91.727,120.537,91.6,120.644,91.444,120.739z"/>
	<path fill-rule="evenodd" clip-rule="evenodd" fill="#F9B7A6" d="M97.668,113.581c0.091,0.008,0.184,0.014,0.275,0.018
		c-0.08,0.208-0.225,0.312-0.417,0.16C97.458,113.704,97.549,113.591,97.668,113.581z"/>
	<path fill-rule="evenodd" clip-rule="evenodd" fill="#FAD3C7" d="M77.606,118.734c-0.074,0.004-0.15,0.01-0.224,0.017
		c0.057-0.208,0.155-0.333,0.387-0.195C77.715,118.616,77.659,118.675,77.606,118.734z"/>
	<path fill-rule="evenodd" clip-rule="evenodd" fill="#FFF2ED" d="M60.803,148.23c2.668,0.549,5.304,1.246,7.998,1.696
		c5.578,0.932,11.188,1.413,16.843,1.389c1.597-0.006,3.194-0.028,4.792-0.042c0.35,0.015,0.83-0.312,0.925,0.356
		c-6.111,0.521-12.206,0.28-18.28-0.492c-3.916-0.497-7.805-1.16-11.612-2.237c-0.451-0.127-0.892-0.289-1.338-0.436
		C60.188,147.915,60.526,148.157,60.803,148.23z"/>
	<path fill-rule="evenodd" clip-rule="evenodd" fill="#FDE8E0" d="M91.36,151.629c-0.214-0.361-0.612-0.248-0.925-0.356
		c1.515-0.268,3.043-0.396,4.577-0.477c0.155,0.018,0.273-0.085,0.408-0.125c0.248-0.021,0.496-0.042,0.744-0.064
		c0.157,0.019,0.275-0.083,0.409-0.135c0.175-0.015,0.349-0.032,0.523-0.05c0.165-0.071,0.334-0.09,0.51-0.056
		c0.053,0.027,0.103,0.054,0.155,0.083c0.055,0.118,0.027,0.215-0.07,0.296c-0.149,0.017-0.298,0.029-0.446,0.044
		c-0.161-0.022-0.281,0.083-0.415,0.141c-0.169,0.018-0.337,0.034-0.507,0.05c-0.206,0.092-0.449,0.039-0.648,0.165
		C94.25,151.414,92.816,151.623,91.36,151.629z"/>
	<path fill-rule="evenodd" clip-rule="evenodd" fill="#FCE3D9" d="M60.803,148.23c-0.24,0.033-0.507-0.011-0.673,0.234
		c-0.893-0.111-1.686-0.526-2.515-0.829c-0.109-0.072-0.223-0.136-0.34-0.194c-0.161-0.047-0.32-0.093-0.48-0.14
		c-0.12-0.074-0.215-0.19-0.368-0.208c-0.151-0.055-0.305-0.111-0.457-0.167c-0.106-0.062-0.207-0.129-0.307-0.197l-0.12-0.01
		l-0.101-0.065c-0.032-0.056-0.064-0.114-0.096-0.169c0.043-0.05,0.085-0.098,0.13-0.147c0.131-0.013,0.258,0.01,0.378,0.064
		c0.154,0.05,0.308,0.099,0.46,0.148c0.119,0.075,0.216,0.19,0.367,0.209c0.153,0.046,0.304,0.096,0.457,0.143
		c0.118,0.077,0.215,0.189,0.365,0.21c0.152,0.038,0.304,0.077,0.455,0.115c0.18,0.149,0.425,0.145,0.619,0.265
		C59.358,147.617,60.107,147.848,60.803,148.23z"/>
	<path fill-rule="evenodd" clip-rule="evenodd" fill="#FFFFFF" d="M97.742,150.257c0.083-0.039,0.169-0.051,0.26-0.031
		c0.181-0.125,0.373-0.1,0.564-0.027c0.038,0.055,0.075,0.11,0.111,0.164c-0.042,0.052-0.084,0.103-0.127,0.153
		c-0.083,0.042-0.173,0.053-0.266,0.033c-0.205,0.136-0.395,0.136-0.57-0.052l0.002,0c-0.09-0.063-0.115-0.119-0.077-0.169
		C97.674,150.279,97.709,150.256,97.742,150.257z"/>
	<path fill-rule="evenodd" clip-rule="evenodd" fill="#FFFFFF" d="M98.859,150.006c0.205,0.027,0.412,0.056,0.618,0.083
		c-0.008,0.086-0.033,0.165-0.076,0.242c-0.154,0.013-0.309,0.027-0.462,0.04c-0.139,0.047-0.259,0.019-0.359-0.088l0.007,0.008
		c-0.091-0.064-0.116-0.124-0.079-0.175c0.038-0.051,0.073-0.076,0.105-0.073C98.69,150.006,98.773,149.996,98.859,150.006z"/>
	<path fill-rule="evenodd" clip-rule="evenodd" fill="#FFFFFF" d="M54.362,145.994c0.017-0.104,0.035-0.208,0.052-0.312
		c0.211,0.044,0.426,0.08,0.561,0.281c0.108,0.145,0.085,0.265-0.074,0.359C54.657,146.319,54.516,146.148,54.362,145.994z"/>
	<path fill-rule="evenodd" clip-rule="evenodd" fill="#FFFFFF" d="M54.901,146.323c0.026-0.12,0.049-0.239,0.074-0.359
		c0.165,0.073,0.33,0.146,0.496,0.22c0.065,0.053,0.086,0.102,0.059,0.148c-0.027,0.047-0.05,0.071-0.074,0.068l0.001,0.002
		c-0.115,0.089-0.237,0.098-0.363,0.024C55.009,146.432,54.944,146.398,54.901,146.323z"/>
	<path fill-rule="evenodd" clip-rule="evenodd" fill="#FCDDD3" d="M95.675,151.145c0.171-0.232,0.405-0.22,0.648-0.165
		C96.129,151.123,95.92,151.199,95.675,151.145z"/>
	<path fill-rule="evenodd" clip-rule="evenodd" fill="#FCDDD3" d="M97.713,150.497c0.19,0.018,0.381,0.036,0.57,0.052
		c-0.164,0.165-0.356,0.251-0.593,0.196C97.701,150.662,97.708,150.58,97.713,150.497z"/>
	<path fill-rule="evenodd" clip-rule="evenodd" fill="#FCDDD3" d="M96.83,150.93c0.108-0.133,0.249-0.172,0.415-0.141
		C97.131,150.91,96.996,150.965,96.83,150.93z"/>
	<path fill-rule="evenodd" clip-rule="evenodd" fill="#FCE0D6" d="M57.275,147.442c0.113,0.064,0.226,0.128,0.34,0.194
		C57.501,147.57,57.388,147.506,57.275,147.442z"/>
	<path fill-rule="evenodd" clip-rule="evenodd" fill="#FCE0D6" d="M56.427,147.093c0.124,0.071,0.245,0.138,0.368,0.208
		C56.672,147.231,56.551,147.164,56.427,147.093z"/>
	<path fill-rule="evenodd" clip-rule="evenodd" fill="#FCD6CA" d="M98.579,150.282c0.119,0.029,0.24,0.061,0.358,0.09
		c-0.095,0.136-0.225,0.186-0.388,0.143C98.56,150.438,98.57,150.361,98.579,150.282z"/>
	<path fill-rule="evenodd" clip-rule="evenodd" fill="#FCE2D8" d="M55.663,146.729c0.101,0.065,0.205,0.132,0.307,0.197
		C55.868,146.861,55.764,146.794,55.663,146.729z"/>
	<path fill-rule="evenodd" clip-rule="evenodd" fill="#FCE2D8" d="M55.093,146.427c0.121-0.009,0.242-0.016,0.363-0.024
		c-0.001,0.083-0.007,0.167-0.014,0.251C55.277,146.652,55.16,146.579,55.093,146.427z"/>
	<path fill-rule="evenodd" clip-rule="evenodd" fill="#FDEEE8" d="M85.841,75.106c2.423,1.578,4.918,1.525,7.496,0.856
		C91.179,77.648,86.038,77.009,85.841,75.106z"/>
	<path fill-rule="evenodd" clip-rule="evenodd" fill="#FCD6CA" d="M98.613,150.042c-0.013,0.083-0.022,0.167-0.026,0.248
		c-0.195-0.02-0.391-0.041-0.585-0.064C98.175,150.061,98.37,149.973,98.613,150.042z"/>
	<path fill-rule="evenodd" clip-rule="evenodd" fill="#FCDDD3" d="M97.742,150.257c-0.011,0.081-0.018,0.161-0.026,0.24
		c-0.206-0.024-0.412-0.049-0.617-0.074C97.285,150.271,97.496,150.19,97.742,150.257z"/>
	<path fill-rule="evenodd" clip-rule="evenodd" fill="#FCE0D6" d="M58.578,147.491c-0.246,0.005-0.486-0.005-0.619-0.265
		C58.203,147.225,58.405,147.323,58.578,147.491z"/>
	<path fill-rule="evenodd" clip-rule="evenodd" fill="#FCE2D8" d="M55.455,146.4c0.003-0.072,0.008-0.146,0.016-0.217
		c0.128,0.072,0.256,0.145,0.383,0.219C55.722,146.401,55.588,146.4,55.455,146.4z"/>
	<path fill-rule="evenodd" clip-rule="evenodd" fill="#FCDDD3" d="M95.419,150.671c-0.108,0.126-0.249,0.16-0.408,0.125
		C95.148,150.754,95.285,150.711,95.419,150.671z"/>
	<path fill-rule="evenodd" clip-rule="evenodd" fill="#FCDDD3" d="M96.572,150.472c-0.106,0.133-0.248,0.17-0.409,0.135
		C96.299,150.562,96.438,150.517,96.572,150.472z"/>
	<path fill-rule="evenodd" clip-rule="evenodd" fill="#FCE0D6" d="M57.504,147.112c-0.122-0.071-0.244-0.141-0.365-0.21
		C57.26,146.971,57.382,147.041,57.504,147.112z"/>
	<path fill-rule="evenodd" clip-rule="evenodd" fill="#FCE0D6" d="M56.682,146.759c-0.122-0.071-0.244-0.138-0.367-0.209
		C56.438,146.621,56.56,146.688,56.682,146.759z"/>
</g>
<g>
	<path fill="#FAA91A" d="M33.816,332.568c0,0,2.901,7.672,3.478,10.271c0.578,2.6-4.344,9.047-4.026,11.972
		c0.316,2.921,2.055,8.06,8.771,9.991c6.718,1.932,8.322,8.564,8.766,12.654c0.443,4.094-1.039,12.239-1.039,12.239
		s0.661,19.748,8.932,22.401c8.272,2.649,6.52,2.84,8.272,2.649c1.755-0.19,15.188,3.681,22.565,0.806
		c7.379-2.866,9.17-5.427,9.17-5.427s7.666-0.239,9.273-7.216c1.613-6.977,1.552-21.168-0.02-27.504
		c-1.574-6.338-3.662-14.688,1.283-18.182c4.947-3.492,10.117-7.602,8.926-10.43c-1.195-2.828-6.313-6.413-6.313-6.413
		s-1.961-7.181-1.276-9.031c0.688-1.85,5.475-6.806,2.202-9.703c-3.269-2.899-8.533-2.328-8.533-2.328l-6.659,1.31
		c0,0-12.51-8.992-27.355-6.795c-14.844,2.202-23.219,12.274-23.219,12.274s-5.159-1.212-9.354,1.014
		C33.465,329.353,32.4,327.692,33.816,332.568z"/>
	<path fill="#E68725" d="M65.243,373.199c0,0-4.831,9.48-8.396,16.224c-0.554,1.04,4.357,0.577,4.357,0.577L65.243,373.199z"/>
	<path fill="#E68725" d="M66.012,354.551c0,0-1.275,4.539-1.98,6.951c-0.766,2.62-4.586,4.297-4.586,4.297s1.817-2.371,1.228-7.818
		c-0.248-2.288,2.603-3.52,2.603-3.52L66.012,354.551z"/>
	<path fill="#E68725" d="M64.516,357.201c0,0-3.115,4.643-10.012,2.979c-6.898-1.666-8.501-10.102-8.76-12.486
		c-0.258-2.384,12.855,1.02,14.67,1.856C62.229,350.389,65.902,354.123,64.516,357.201z"/>
	<path fill="#E68725" d="M34.512,314.441c0,0,5.998-1.855,10.435,0.938s5.905,5.214,5.905,5.214l-6.297,6.206
		c0,0-3.494-1.184-4.995-5.498C38.06,316.984,38.518,314.868,34.512,314.441z"/>
	<path fill="#E68725" d="M61.395,345.102c-3.045-3.458-7.568-4.623-11.07-4.518c-5.971,0.178-8.555,2.576-8.555,2.576
		s9.74-0.641,12.934,2.729c5.941,6.268,13.59,6,14.641,4.368c-1.395,0.22-3.014-0.306-4.836-1.689
		C63.37,347.703,62.36,346.201,61.395,345.102z"/>
	<path fill="#E68725" d="M46.464,360.119c0,0-11.159-2.531-9.521-6.503c1.637-3.964-0.209-5.828-0.209-5.828
		s-5.522,5.134-3.475,9.735c1.258,2.824,3.064,4.771,12.17,7.892c4.992,7.271,3.201,21.526,3.404,21.565
		c0.343,0.078,5.541-3.354,3.758-16.312C52.045,366.691,51.136,361.273,46.464,360.119z"/>
	<path fill="#E68725" d="M56.25,318.823c-4.262,2.782-10.095,6.641-10.095,6.641l2.563,0.958c-0.189,0.399-0.279,0.637-0.279,0.637
		l2.619,0.86c0,0,6.573,3.759,10.613,6.188c-1.662-3.695-5.965-9.322-5.965-9.322S54.37,322.132,56.25,318.823z"/>
	<path fill="#E68725" d="M81.355,410.608c-13.863,1.502-19.322-5.027-19.322-5.027l2.738,5.042
		c1.068,2.194,10.572,8.355,17.389,7.616"/>
	<path fill="#E68725" d="M63.036,400.661c0,0,2.122,7.66,7.229,7.106c4.34-0.471,4.906-7.199,4.759-8.555L63.036,400.661z"/>
	<path fill="#E68725" d="M53.264,389.826c0.318-1.299,1.36-6.519,1.373-11.171c0.015-5.569-1.08-13.599-1.08-13.599
		s-0.789,5.426-1.891,6.404c-1.099,0.98-2.685,7.009-2.685,7.009s-0.253,8.746-0.504,11.704
		C50.074,390.317,51.289,389.252,53.264,389.826z"/>
	<path fill="#E68725" d="M37.23,357.008c0,0,2.781-1.335,2.951-7.727c0.168-6.393-2.295-11.637-2.295-11.637
		s1.111,8.666,0.274,10.479c-0.838,1.814-1.632,2.415-2.585,4.76C34.623,355.223,36.475,356.4,37.23,357.008z"/>
	<path fill="#87CBEC" d="M49.451,326.416"/>
	<path fill="#FCC06A" d="M36.254,315.758l-0.629-0.309C33.889,315.695,36.254,315.758,36.254,315.758z"/>
	<path fill="#FAA91A" d="M58.404,316.707c0,0-2.773-0.161-4.357-2.056c-1.584-1.896-5.885-5.564-12.039-4.944
		c-6.156,0.621-12.061,2.963-12.061,2.963l5.676,2.779c0.561-0.078,1.543-0.177,3.174-0.301c6.689-0.5,8.432,5.98,8.432,5.98
		l23.143-5.777"/>
	<path fill="#FFFFFF" d="M64.619,352.879c0,0-2.833,3.52-7.824,3.027s-8.178-2.33-8.811-6.048c-0.633-3.723,0.458-5.333,0.458-5.333
		s5.633,1.113,8.489,3.1C59.788,349.613,62.109,353.037,64.619,352.879z"/>
	<path fill="#C9C9C8" d="M60.651,352.16c0,0-2.622,1.557-5.812,0.866c-4.182-0.911-4.902-5.075-4.902-5.075s-1.688,7.529,5.4,8.176
		c5.684,0.517,8.625-3.064,8.625-3.064L60.651,352.16z"/>
	<path fill="#473117" d="M68.228,392.509"/>
	<path fill="#473117" d="M58.619,315.125c-0.971-6.197,3.598-11.707,5.343-12.11c0.212,1.041,0.46,5.181,2.366,6.255
		c0.15-3.418,1.488-7.311,8.102-10.484c-1.049,4.061,0.581,7.197,1.354,8.648c4.23-4.771,7.469-4.41,7.469-4.41
		s-2.65,5.981-0.977,9.537C72.775,312.84,58.773,316.119,58.619,315.125z"/>
	<path fill="#473117" d="M39.671,326.771c-2.45-1.618-0.963-3.534-1.368-5.631c-0.221-1.118-0.426-2.175-0.861-2.718
		c-2.422-3.046-7.41-3.506-7.461-3.512l-2.339-0.201l1.324-1.938c0.173-0.252,5.757-6.864,15.729-4.799
		c6.979,1.443,12.766,8.273,12.984,8.551l-3.209,1.954c-0.046-0.056-4.742-6.559-10.727-7.796c-4.838-1.004-8.991,0.9-10.735,2.04
		c2.048,0.571,4.767,1.719,6.576,3.991c0.854,1.072,1.134,2.514,1.404,3.902c0.359,1.845,0.696,3.583,2.189,4.572L39.671,326.771z"
		/>
	<path fill="#473117" d="M36.615,354.651c0,0,2.453-3.817,2.552-10.744c0.038-2.729-1.124-7.975-2.28-9.916
		c0.713,5.002-0.019,10.165-0.019,10.165S37.018,353.574,36.615,354.651z"/>
	<path fill="#473117" d="M48.218,322.258c-0.001-0.008-1.339-3.877-4.071-5.604c-3.855-2.44-8.025-0.465-8.066-0.451l-0.842-1.874
		c0.205-0.092,4.988-2.188,9.9,0.525c4.94,2.73,5.81,5.596,5.893,5.914L48.218,322.258z"/>
	<path fill="#473117" d="M45.239,351.17c0,0-1.716-1.967-1.702-4.338c0.008-1.168,0.415-2.411,1.324-2.938
		c1.693-0.973,2.698,0.955,2.698,0.955S45.125,345.736,45.239,351.17z"/>
	<path fill="#473117" d="M68.228,392.509"/>
	<path fill="#473117" d="M61.908,352.644c0.074,0.108,0.114,0.171,0.114,0.171s-4.259,3.979-9.392,0.966
		c-2.749-1.617-3.016-6.321-2.453-8.39c2.08,0.24,3.885,0.881,5.426,1.693c-1.99-1.426-3.708-2.443-3.706-2.473l-2.127-0.36
		l-4.157-0.938c-0.019,0.308-0.738,7.322,3.989,11.537c2.095,1.865,11.369,5.553,14.675-2.827L61.908,352.644z"/>
	<path fill="#473117" d="M61.528,353.2c3.042,3.69,9.38,0.706,8.812-3.481c0,0-4.138,2.904-8.51-1.143
		c-2.55-2.367-10.603-8.773-20.205-5.314C48.598,344.021,58.287,349.267,61.528,353.2z"/>
	<g>
		<path fill="#473117" d="M68.228,392.509"/>
	</g>
	<path fill="#473117" d="M43.213,366.527c0.668,0.295,3.13,2.346,3.503,5.774c0.187,1.721,0.952,10.378,0.673,15.75
		c1.369,0.694,2.281,0.772,3.648,1.479c-0.027-6.182-0.526-15.09-1.127-18.642c-0.687-4.05-3.166-6.55-5.316-7.497
		c-0.673-0.296-1.375-0.582-2.082-0.871c-3.67-1.497-7.463-3.045-7.822-6.357c-0.281-2.586,0.637-3.509,1.609-4.48l0.104-0.105
		c0.646-0.646,1.377-1.383,1.736-2.494c0.979-3.052,0.387-10.48-1.322-12.197c-0.853-0.857-3.201-3.792-2.855-5.971
		c0.132-0.832,0.578-1.488,1.361-2.002c0.827-0.544,1.986-0.901,3.443-1.059c2.867-0.311,6.137,0.218,7.833,0.56
		c6.058,1.22,13.704,5.806,15.903,7.186c0.062,0.036,0.1,0.06,0.106,0.065l1.396,0.76l-0.959-1.268
		c-0.059-0.079-6.109-7.968-15.625-10.066c-1.851-0.41-5.469-1.039-8.917-0.666c-2.052,0.223-3.757,0.77-5.059,1.627
		c-1.589,1.041-2.579,2.536-2.864,4.319c-0.699,4.38,3.59,8.706,3.736,8.841c0.525,0.741,1.33,6.43,0.561,8.824
		c-0.106,0.332-0.457,0.681-0.899,1.125c-0.138,0.143-0.295,0.285-0.459,0.439c-1.318,1.242-3.31,3.113-2.901,6.885
		c0.559,5.159,6.092,7.391,10.537,9.186C41.885,365.966,42.581,366.247,43.213,366.527z"/>
	<g>
		<g>
			<path fill="#473117" d="M39.671,326.771c-2.45-1.618-0.963-3.534-1.368-5.631c-0.221-1.118-0.426-2.175-0.861-2.718
				c-2.422-3.046-7.41-3.506-7.461-3.512l-2.339-0.201l1.324-1.938c0.173-0.252,5.757-6.864,15.729-4.799
				c6.979,1.443,12.766,8.273,12.984,8.551l-3.209,1.954c-0.046-0.056-4.742-6.559-10.727-7.796c-4.838-1.004-8.991,0.9-10.735,2.04
				c2.048,0.571,4.767,1.719,6.576,3.991c0.854,1.072,1.134,2.514,1.404,3.902c0.359,1.845,0.696,3.583,2.189,4.572L39.671,326.771z
				"/>
		</g>
		<g>
			<path fill="#473117" d="M39.639,327.162l-0.157-0.104c-1.817-1.205-1.669-2.602-1.526-3.949c0.064-0.621,0.134-1.266,0.008-1.906
				c-0.207-1.076-0.406-2.09-0.791-2.57c-2.305-2.896-7.174-3.379-7.223-3.38l-2.922-0.255l1.657-2.421
				c0.03-0.044,3.591-4.518,10.362-5.251c1.847-0.2,3.771-0.098,5.717,0.309c7.283,1.505,13.13,8.605,13.186,8.678l0.236,0.303
				l-3.792,2.315l-0.188-0.24c-0.51-0.687-4.979-6.528-10.529-7.678c-1.364-0.282-2.774-0.347-4.192-0.192
				c-2.57,0.278-4.577,1.203-5.634,1.798c1.941,0.632,4.34,1.793,6.006,3.881c0.906,1.14,1.191,2.615,1.471,4.044
				c0.346,1.776,0.67,3.451,2.042,4.356l0.516,0.343L39.639,327.162z"/>
		</g>
	</g>
	<g>
		<g>
			<path fill="#473117" d="M48.218,322.258c-0.001-0.008-1.339-3.877-4.071-5.604c-3.855-2.44-8.025-0.465-8.066-0.451l-0.842-1.874
				c0.205-0.092,4.988-2.188,9.9,0.525c4.94,2.73,5.81,5.596,5.893,5.914L48.218,322.258z"/>
		</g>
		<g>
			<path fill="#473117" d="M48.023,322.746l-0.13-0.379c-0.015-0.038-1.317-3.77-3.933-5.421c-1.488-0.948-3.202-1.321-5.088-1.116
				c-1.475,0.158-2.531,0.629-2.646,0.683l-0.313,0.144l-1.125-2.5l0.313-0.143c0.139-0.06,1.408-0.61,3.27-0.812
				c2.452-0.265,4.849,0.2,6.935,1.353c5.065,2.797,5.972,5.796,6.056,6.128l0.072,0.262L48.023,322.746z M38.799,315.149
				c2.016-0.218,3.93,0.204,5.531,1.214c2.32,1.469,3.649,4.363,4.071,5.412l2.216-1.176c-0.299-0.796-1.488-3.15-5.643-5.443
				c-1.989-1.1-4.185-1.527-6.529-1.274c-1.288,0.14-2.266,0.452-2.745,0.634l0.558,1.241
				C36.729,315.579,37.637,315.275,38.799,315.149z"/>
		</g>
	</g>
	<path fill="#473117" d="M69.85,405.916L69.85,405.916c-1.008,0.109-2.072-0.146-2.851-0.68c-0.597-0.41-2.621-1.902-3.658-3.887
		c-0.388-0.744-0.388-1.368,0.005-1.863c0.269-0.342,0.86-0.773,2.139-0.912l0.907-0.099c1.083-0.117,2.907-0.314,4.466-0.483
		l1.494-0.162c0.971-0.104,1.689,0.025,2.135,0.393c0.572,0.473,0.48,1.166,0.375,1.533c-0.182,0.651-1,2.776-2.551,4.84
		C71.754,405.336,70.878,405.805,69.85,405.916z"/>
	<path fill="#473117" d="M65.187,353.041l-3.658,0.159c0,0,1.106,1.538,1.938,3.589c0.938,2.318,0.018,5.959,0.018,5.959
		S67.73,356.74,65.187,353.041z"/>
	<g>
		<path fill="#473117" d="M67.408,415.886c-13.033,0.407-18.906-11.315-19.182-13.858l3.377-0.367l-1.688,0.184l1.688-0.184
			c0.135,1.095,4.701,11.172,15.699,10.83L67.408,415.886z"/>
	</g>
	<path fill="#FFFFFF" d="M61.404,394.393c-0.328-1.141-0.47-2.248-0.34-3.363c-1.062-0.629-2.855-0.715-4.225-0.999
		c-1.156-0.567-6.541,1.417-11.08-3.007c-5.693-5.541-5.026-9.285-5.026-9.285c-1.136,1.572-2.446,1.159-3.687,8.055
		c-1.244,6.898,2.152,11.244,8.051,15.336c2.788,1.938,6.488,2.456,9.623,2.468c-1.15-0.93,1.648-1.337,3.508-2.272
		c-0.324-1.544-0.23-3.094,0.803-4.441c0.623-0.813,1.48-1.351,2.381-1.803c0.039-0.131,0.072-0.248,0.109-0.366
		C61.478,394.611,61.436,394.506,61.404,394.393z"/>
	<path fill="#C9C9C8" d="M58.197,401.287c-0.148-0.316-0.269-0.643-0.388-0.967c-0.13-0.361-0.688-1.352-0.01-0.228
		c-0.175-0.286-0.302-0.593-0.403-0.899c-8.734,0.935-16.98-4.24-16.879-17.003c-1.309-1.394-2.412,3.358-2.412,3.358
		s-2.998,13.168,8.827,16.865c3.94,1.232,7.392,2.052,8.125,1.488c1.671,0.155,3.022-1.142,3.494-1.953
		C58.424,401.731,58.304,401.514,58.197,401.287z"/>
	<path fill="#473117" d="M61.049,392.582c-0.1-1.062,0.004-2.115,0.408-3.198c0.027-0.075,0.062-0.147,0.094-0.222
		c-3.364,0.338-7.269,0.433-10.709-0.529c-3.777-1.055-8.85-5.523-10.257-11.266c0,0-6.251,6.004-3.025,17.057
		c3.027,10.377,12.255,12.868,22.415,12.355c-0.001-0.064-1.396-2.303-1.191-3.78c-5.689,1.034-12.342-0.483-15.988-5.241
		c-3.342-4.355-3.408-12.4-2.369-13.693C44.238,392.719,54.658,393.435,61.049,392.582z"/>
	<path fill="#473117" d="M80.695,404.512"/>
	<path fill="#473117" d="M61.414,386.053c-1.242,5.531-4.486,10.248-4.486,10.248s5.08-0.789,5.264-1.723
		c0.139-0.688,3.424-11.467,3.804-23.72C64.691,373.641,61.52,385.578,61.414,386.053z"/>
	<path fill="#E68725" d="M89.006,370.624c0,0,6.747,8.227,11.676,14.05c0.76,0.896-4.135,1.497-4.135,1.497L89.006,370.624z"/>
	<path fill="#E68725" d="M84.262,352.574c0,0,2.217,4.161,3.42,6.365c1.311,2.395,5.4,3.215,5.4,3.215s-2.281-1.927-2.872-7.375
		c-0.247-2.287-3.298-2.879-3.298-2.879L84.262,352.574z"/>
	<path fill="#E68725" d="M86.288,354.842c0,0,4.038,3.867,10.417,0.766c6.385-3.105,6.142-11.688,5.884-14.073
		c-0.257-2.384-12.339,3.75-13.932,4.956C87.066,347.697,84.274,352.133,86.288,354.842z"/>
	<path fill="#E68725" d="M106.438,306.648c0,0-6.258-0.527-9.993,3.15s-4.65,6.357-4.65,6.357l7.479,4.712
		c0,0,3.161-1.903,3.703-6.438C103.518,309.893,102.615,307.923,106.438,306.648z"/>
	<path fill="#E68725" d="M86.745,342.355c2.235-4.03,6.403-6.137,9.845-6.784c5.872-1.106,8.908,0.684,8.908,0.684
		s-9.652,1.46-12.049,5.437c-4.462,7.395-11.988,8.771-13.365,7.402c1.411-0.086,2.881-0.945,4.361-2.686
		C85.373,345.318,86.037,343.637,86.745,342.355z"/>
	<path fill="#E68725" d="M104.547,353.826c0,0,10.355-4.862,7.906-8.391c-2.449-3.522-1.045-5.738-1.045-5.738
		s6.494,3.832,5.477,8.766c-0.621,3.027-1.969,5.317-10.194,10.314c-3.321,8.172,1.481,21.713,1.294,21.795
		c-0.318,0.148-6.131-2.09-7.164-15.129C100.502,361.441,100.232,355.953,104.547,353.826z"/>
	<path fill="#E68725" d="M86.144,315.584c4.758,1.807,11.282,4.325,11.282,4.325l-2.299,1.483c0.273,0.35,0.41,0.562,0.41,0.562
		l-2.375,1.402c0,0-5.614,5.078-9.043,8.318c0.83-3.965,3.831-10.385,3.831-10.385S88.688,318.413,86.144,315.584z"/>
	<path fill="#E68725" d="M81.279,410.617c13.861-1.502,17.793-9.05,17.793-9.05l-1.592,5.513
		c-0.572,2.371-8.539,10.425-15.355,11.164"/>
	<path fill="#E68725" d="M97.039,396.977c0,0-0.432,7.937-5.535,8.49c-4.34,0.471-6.334-5.981-6.48-7.338L97.039,396.977z"/>
	<path fill="#E68725" d="M104.268,384.3c-0.591-1.2-2.726-6.076-3.737-10.616c-1.207-5.438-1.856-13.516-1.856-13.516
		s1.936,5.131,3.219,5.851c1.285,0.723,4.124,6.272,4.124,6.272s2.118,8.488,2.995,11.324
		C107.488,384.096,106.073,383.316,104.268,384.3z"/>
	<path fill="#E68725" d="M112.9,348.809c0,0-3.004-0.707-4.537-6.915c-1.535-6.208-0.252-11.857-0.252-11.857
		s0.77,8.702,1.975,10.294c1.208,1.593,2.113,2.01,3.545,4.095C115.062,346.508,113.508,348.054,112.9,348.809z"/>
	<path fill="#87CBEC" d="M94.41,321.545"/>
	<path fill="#FCC06A" d="M105.016,308.307l0.551-0.436C107.314,307.74,105.016,308.307,105.016,308.307z"/>
	<path fill="#FAA91A" d="M83.584,313.979c0,0,2.677-0.752,3.814-2.941c1.143-2.191,4.559-6.695,10.707-7.408
		c6.145-0.711,12.41,0.311,12.41,0.311l-4.949,3.932c-0.562,0.044-1.547,0.158-3.165,0.387c-6.642,0.943-6.952,7.646-6.952,7.646
		l-23.843-0.686"/>
	<path fill="#FFFFFF" d="M85.26,350.642c0,0,3.523,2.833,8.293,1.282s7.488-4.027,7.31-7.795c-0.181-3.771-1.587-5.111-1.587-5.111
		s-5.265,2.294-7.629,4.848C89.283,346.42,87.746,350.26,85.26,350.642z"/>
	<path fill="#C9C9C8" d="M88.981,349.092c0,0,2.896,0.957,5.862-0.399c3.888-1.786,3.705-6.007,3.705-6.007s3.26,6.992-3.529,9.143
		c-5.438,1.721-9.078-1.146-9.078-1.146L88.981,349.092z"/>
	<path fill="#473117" d="M90.225,390.126"/>
	<path fill="#473117" d="M104.038,319.797c2.048-2.107,0.186-3.658,0.134-5.794c-0.028-1.14-0.055-2.216,0.254-2.838
		c1.714-3.495,6.49-5.013,6.537-5.028l2.244-0.699l-1.709-1.607c-0.223-0.21-7.092-5.473-16.395-1.318
		c-6.504,2.903-10.695,10.814-10.849,11.133l3.552,1.222c0.035-0.065,3.228-7.423,8.811-9.914c4.51-2.016,8.977-1.045,10.922-0.306
		c-1.877,0.996-4.289,2.701-5.571,5.307c-0.602,1.231-0.567,2.699-0.534,4.113c0.047,1.879,0.086,3.648-1.16,4.936L104.038,319.797z
		"/>
	<path fill="#473117" d="M112.994,346.377c0,0-3.213-3.205-4.793-9.949c-0.621-2.658-0.611-8.03,0.104-10.174
		c0.375,5.037,2.195,9.925,2.195,9.925S112.373,345.41,112.994,346.377z"/>
	<path fill="#473117" d="M94.725,317.219c0-0.008,0.478-4.074,2.779-6.346c3.24-3.209,7.736-2.174,7.778-2.169l0.422-2.011
		c-0.22-0.045-5.343-1.068-9.558,2.633c-4.242,3.727-4.477,6.712-4.49,7.039L94.725,317.219z"/>
	<path fill="#473117" d="M103.826,344.822c0,0,1.254-2.289,0.732-4.603c-0.256-1.14-0.922-2.266-1.924-2.585
		c-1.859-0.588-2.432,1.511-2.432,1.511S102.773,339.49,103.826,344.822z"/>
	<path fill="#473117" d="M90.225,390.126"/>
	<path fill="#473117" d="M87.859,349.832c-0.05,0.121-0.074,0.19-0.074,0.19s5.011,2.976,9.38-1.067
		c2.339-2.168,1.589-6.82,0.596-8.719c-1.975,0.679-3.603,1.691-4.935,2.814c1.637-1.818,3.097-3.181,3.09-3.208l2.001-0.808
		l3.86-1.809c0.084,0.3,2.287,6.997-1.428,12.124c-1.648,2.272-9.917,7.859-14.938,0.384L87.859,349.832z"/>
	<path fill="#473117" d="M88.346,350.295c-2.178,4.256-9.005,2.698-9.346-1.514c0,0,4.66,1.95,8.062-2.939
		c1.986-2.857,8.48-10.84,18.6-9.518C99.017,338.559,90.674,345.758,88.346,350.295z"/>
	<g>
		<path fill="#473117" d="M90.225,390.126"/>
	</g>
	<path fill="#473117" d="M109.096,359.389c-0.59,0.432-2.555,2.962-2.184,6.391c0.184,1.722,1.291,10.342,2.715,15.529
		c-1.189,0.971-2.062,1.242-3.245,2.226c-1.304-6.042-2.722-14.853-2.894-18.45c-0.197-4.102,1.689-7.076,3.586-8.461
		c0.595-0.434,1.22-0.863,1.846-1.296c3.266-2.249,6.641-4.573,6.281-7.887c-0.279-2.585-1.375-3.29-2.533-4.032l-0.123-0.08
		c-0.769-0.494-1.641-1.056-2.227-2.066c-1.609-2.77-2.627-10.152-1.324-12.195c0.648-1.02,2.318-4.391,1.512-6.444
		c-0.309-0.784-0.885-1.329-1.758-1.663c-0.926-0.354-2.133-0.455-3.594-0.297c-2.863,0.311-5.946,1.527-7.529,2.225
		c-5.654,2.488-12.141,8.605-13.995,10.425c-0.054,0.05-0.085,0.08-0.091,0.087l-1.198,1.041l0.661-1.444
		c0.044-0.09,4.261-9.091,13.106-13.179c1.724-0.798,5.119-2.187,8.57-2.561c2.055-0.223,3.832-0.053,5.29,0.506
		c1.773,0.676,3.061,1.926,3.725,3.605c1.619,4.129-1.646,9.272-1.757,9.436c-0.356,0.837,0.077,6.564,1.341,8.739
		c0.174,0.303,0.588,0.567,1.117,0.907c0.166,0.109,0.35,0.215,0.545,0.331c1.553,0.931,3.9,2.331,4.309,6.103
		c0.561,5.159-4.367,8.525-8.326,11.23C110.272,358.557,109.651,358.98,109.096,359.389z"/>
	<path fill="#473117" d="M98.49,319.784c-0.984-1.318-3.405-3.808-8.568-5.669c-5.762-2.068-12.24-2.742-19.262-1.982l0,0
		c0,0-0.008,0.001-0.013,0.002c0,0-0.011,0.001-0.013,0.001l0,0c-7.023,0.763-13.211,2.806-18.393,6.062
		c-4.643,2.923-6.477,5.874-7.156,7.372l-0.305,0.512l4.299,0.479l0.116-0.183l0.054-0.16c0.034-0.282,0.436-1.841,4.869-4.634
		c4.74-2.983,10.442-4.854,16.948-5.559c6.508-0.705,12.477-0.1,17.745,1.8c4.928,1.778,5.654,3.216,5.75,3.483l0.088,0.145
		l0.146,0.154l4.101-1.388L98.49,319.784z"/>
	<g>
		<g>
			<path fill="#473117" d="M104.038,319.797c2.048-2.107,0.186-3.658,0.134-5.794c-0.028-1.14-0.055-2.216,0.254-2.838
				c1.714-3.495,6.49-5.013,6.537-5.028l2.244-0.699l-1.709-1.607c-0.223-0.21-7.092-5.473-16.395-1.318
				c-6.504,2.903-10.695,10.814-10.849,11.133l3.552,1.222c0.035-0.065,3.228-7.423,8.811-9.914
				c4.51-2.016,8.977-1.045,10.922-0.306c-1.877,0.996-4.289,2.701-5.571,5.307c-0.602,1.231-0.567,2.699-0.534,4.113
				c0.047,1.879,0.086,3.648-1.16,4.936L104.038,319.797z"/>
		</g>
		<g>
			<path fill="#473117" d="M99.597,319.207l0.431-0.444c1.146-1.181,1.105-2.884,1.062-4.692c-0.034-1.458-0.069-2.961,0.57-4.268
				c1.18-2.395,3.275-4.045,5.038-5.078c-1.162-0.351-3.322-0.827-5.891-0.549c-1.419,0.154-2.783,0.521-4.055,1.088
				c-5.176,2.311-8.29,8.975-8.64,9.753l-0.133,0.274l-4.202-1.449l0.17-0.346c0.037-0.082,4.228-8.268,11.017-11.299
				c1.815-0.814,3.676-1.32,5.521-1.521c6.771-0.733,11.208,2.866,11.248,2.903l2.135,2.012l-2.799,0.871
				c-0.047,0.017-4.698,1.528-6.335,4.852c-0.271,0.556-0.245,1.584-0.22,2.681c0.017,0.651,0.218,1.265,0.417,1.86
				c0.429,1.288,0.871,2.621-0.646,4.186l-0.133,0.133L99.597,319.207z"/>
		</g>
	</g>
	<g>
		<g>
			<path fill="#473117" d="M94.725,317.219c0-0.008,0.478-4.074,2.779-6.346c3.24-3.209,7.736-2.174,7.778-2.169l0.422-2.011
				c-0.22-0.045-5.343-1.068-9.558,2.633c-4.242,3.727-4.477,6.712-4.49,7.039L94.725,317.219z"/>
		</g>
		<g>
			<path fill="#473117" d="M91.303,316.623l0.014-0.271c0.012-0.341,0.255-3.465,4.604-7.281c1.789-1.572,4.031-2.541,6.485-2.807
				c1.859-0.201,3.218,0.064,3.368,0.094l0.334,0.07l-0.562,2.684l-0.337-0.072c-0.128-0.029-1.26-0.261-2.732-0.102
				c-1.889,0.205-3.48,0.936-4.733,2.182c-2.197,2.172-2.675,6.098-2.677,6.137l-0.049,0.398L91.303,316.623z M105.016,308.307
				l0.281-1.332c-0.512-0.072-1.532-0.17-2.818-0.03c-2.348,0.255-4.401,1.145-6.105,2.644c-3.569,3.13-4.229,5.684-4.347,6.525
				l2.419,0.674c0.184-1.115,0.863-4.227,2.816-6.158c1.347-1.33,3.126-2.152,5.14-2.371
				C103.561,308.132,104.519,308.234,105.016,308.307z"/>
		</g>
	</g>
	<path fill="#473117" d="M88.828,402.807c-1.955-1.684-3.211-3.585-3.531-4.182c-0.182-0.336-0.416-0.992,0.041-1.577
		c0.354-0.454,1.027-0.736,2-0.842l1.494-0.161c1.559-0.17,3.383-0.367,4.466-0.484l0.909-0.099
		c1.275-0.138,1.943,0.157,2.279,0.434c0.489,0.396,0.626,1.009,0.406,1.818c-0.588,2.161-2.247,4.051-2.741,4.58
		c-0.646,0.688-1.632,1.167-2.638,1.276l0,0C90.483,403.681,89.529,403.41,88.828,402.807z"/>
	<path fill="#473117" d="M84.742,350.922l3.604-0.627c0,0-0.748,1.738-1.12,3.92c-0.42,2.465,1.262,5.824,1.262,5.824
		S83.049,355.08,84.742,350.922z"/>
	<path fill="#E68725" d="M73.561,339.016c-2.314,0.25-5.34,0.514-7.779-0.869c0,0,3.527,4.876,8.156,4.375l-0.067-0.658l0.074,0.657
		c4.629-0.502,7.028-6.021,7.028-6.021C78.885,338.373,75.873,338.766,73.561,339.016z"/>
	<path fill="#473117" d="M79.93,338.3c-2.169,1.656-4.189,2.367-6.162,2.626c-1.984,0.17-4.11-0.092-6.584-1.244
		c0,0,3.83,3.756,6.805,3.469l0.001,0.002c0.007-0.001,0.012-0.002,0.02-0.002c0.005-0.001,0.011-0.002,0.016-0.002l-0.001-0.002
		C76.995,342.789,79.93,338.3,79.93,338.3z"/>
	<g>
		<path fill="#473117" d="M96.031,412.785l-0.623-3.34c10.814-2.021,13.115-12.843,13.016-13.94l3.375-0.366
			C112.078,397.683,108.849,410.391,96.031,412.785z"/>
	</g>
	<path fill="#FFFFFF" d="M97.293,390.504c0.078-1.184-0.023-2.296-0.387-3.359c0.902-0.84,2.637-1.309,3.91-1.879
		c1.008-0.803,6.693-0.016,10.184-5.312c4.371-6.632,2.918-10.146,2.918-10.146c1.447,1.293,2.637,0.609,5.33,7.078
		c2.691,6.473,0.301,11.445-4.584,16.705c-2.309,2.49-5.812,3.788-8.873,4.471c0.926-1.154-1.895-0.951-3.909-1.469
		c-0.015-1.577-0.438-3.07-1.737-4.164c-0.781-0.664-1.735-1.004-2.711-1.254c-0.066-0.118-0.123-0.225-0.184-0.332
		C97.27,390.732,97.283,390.621,97.293,390.504z"/>
	<path fill="#C9C9C8" d="M101.9,396.553c0.079-0.342,0.127-0.687,0.171-1.029c0.052-0.381,0.385-1.466-0.038-0.224
		c0.111-0.317,0.168-0.643,0.203-0.966c8.73-0.955,15.678-7.777,12.844-20.223c0.977-1.641,3.076,2.764,3.076,2.764
		s5.75,12.221-5.01,18.365c-3.584,2.048-6.781,3.586-7.617,3.194c-1.598,0.509-3.199-0.468-3.831-1.16
		C101.775,397.034,101.848,396.795,101.9,396.553z"/>
	<path fill="#473117" d="M97.25,388.66c-0.125-1.06-0.457-2.066-1.08-3.037c-0.045-0.067-0.094-0.132-0.139-0.197
		c3.356-0.391,7.192-1.133,10.346-2.809c3.463-1.841,7.459-7.292,7.605-13.203c0,0,7.395,4.526,6.611,16.014
		c-0.738,10.785-9.217,15.193-19.252,16.869c-0.014-0.064,0.873-2.547,0.357-3.948c5.775-0.208,11.949-3.114,14.494-8.544
		c2.326-4.97,0.668-12.842-0.623-13.883C113.703,385.193,103.679,388.123,97.25,388.66z"/>
	<g>
		<path fill="#473117" d="M80.619,404.52"/>
		<path fill="#473117" d="M101.617,390.871c-1.349-1.174-3.734-2.484-8.851-1.931c0,0-9.695,1.046-13.622,1.466l0,0
			c-0.006,0-0.012,0-0.015,0.002c0,0-0.014,0-0.019,0.002l0,0c-3.923,0.432-13.621,1.486-13.621,1.486
			c-5.115,0.554-7.163,2.346-8.23,3.781c-1.552,2.094-1.541,4.761,0.033,7.93c4.184,8.436,9.692,16.863,24.896,15.231v0.003
			c0.009,0,0.013-0.006,0.02-0.006c0.004,0,0.012,0.003,0.017,0.002l-0.001-0.004c15.203-1.662,18.776-11.074,21.059-20.209
			C104.141,395.192,103.578,392.585,101.617,390.871z M100.031,398.355c-1.061,4.575-4.042,15.701-18.173,17.248
			c-14.137,1.518-19.431-8.714-21.448-12.955c-1.117-2.36-1.249-4.174-0.385-5.408c0.594-0.842,2.039-1.927,5.568-2.309l3.684-0.401
			c2.721-0.298,6.135-0.669,10.178-1.106c4.041-0.438,7.456-0.807,10.176-1.1l3.686-0.396c3.528-0.383,5.176,0.369,5.935,1.062
			C100.357,394.01,100.619,395.811,100.031,398.355z"/>
	</g>
	<path fill="#473117" d="M95.499,382.359c2.396,5.137,6.574,9.05,6.574,9.05s-5.132,0.317-5.511-0.556
		c-0.279-0.641-5.797-10.468-8.795-22.354C89.639,370.938,95.294,381.92,95.499,382.359z"/>
</g>
<text transform="matrix(1 0 0 1 151.333 169.4976)" font-family="'MyriadPro-Regular'" font-size="24">SRC</text>
<text transform="matrix(1 0 0 1 513.667 170)" font-family="'MyriadPro-Regular'" font-size="24">DEST</text>
<g>
	<g>
		<g>
			<polygon fill="#202020" points="206,159 485.645,159 482.844,152.565 506,162.417 482.844,172.395 485.645,166 206,166 			"/>
		</g>
	</g>
</g>
<circle stroke="#FFFFFF" stroke-width="2" stroke-miterlimit="10" cx="272" cy="162.666" r="10"/>
<circle stroke="#FFFFFF" stroke-width="2" stroke-miterlimit="10" cx="342" cy="162.666" r="10"/>
<circle stroke="#FFFFFF" stroke-width="2" stroke-miterlimit="10" cx="412" cy="162.666" r="10"/>
<text transform="matrix(0.5424 -0.8401 0.8401 0.5424 272 147.0967)" font-family="'MyriadPro-Regular'" font-size="21">processor_0</text>
<text transform="matrix(0.5424 -0.8401 0.8401 0.5424 342 147.0967)" font-family="'MyriadPro-Regular'" font-size="21">processor_1</text>
<text transform="matrix(0.5424 -0.8401 0.8401 0.5424 412 147.0967)" font-family="'MyriadPro-Regular'" font-size="21">processor_2</text>
<text transform="matrix(1 0 0 1 151.333 374.9824)" font-family="'MyriadPro-Regular'" font-size="24">SRC</text>
<text transform="matrix(1 0 0 1 513.667 368.1992)" font-family="'MyriadPro-Regular'" font-size="24">DEST</text>
<circle cx="349" cy="443.666" r="10"/>
<circle cx="362" cy="301.666" r="10"/>
<text transform="matrix(1 0 0 1 214.9995 348.4971)" font-family="'MyriadPro-Regular'" font-size="21">processor_0</text>
<text transform="matrix(1 0 0 1 368 386.8096)" font-family="'MyriadPro-Regular'" font-size="21">processor_1</text>
<text transform="matrix(1 0 0 1 438.334 311.3574)" font-family="'MyriadPro-Regular'" font-size="21">processor_2</text>
<g>
	<g>
		<g>
			<path fill="#202020" d="M206.141,362.452c0,0,2.524,0.166,6.941,0.455c1.104,0.072,2.327,0.153,3.658,0.24
				c0.666,0.044,1.358,0.09,2.077,0.137c0.717,0.079,1.46,0.16,2.228,0.244c3.07,0.356,6.538,0.71,10.312,1.189
				c1.881,0.312,3.84,0.638,5.868,0.975c1.014,0.169,2.045,0.341,3.092,0.515c0.523,0.088,1.051,0.176,1.582,0.265
				c0.527,0.119,1.057,0.239,1.591,0.36c4.269,0.991,8.804,1.878,13.374,3.359c4.634,1.229,9.258,3.072,13.975,4.855
				c2.3,1.046,4.619,2.101,6.946,3.159c1.182,0.491,2.273,1.177,3.41,1.771l3.381,1.846c8.935,5.086,17.132,11.362,24.18,17.83
				c1.73,1.648,3.468,3.237,5.102,4.853c1.592,1.651,3.148,3.267,4.665,4.839c0.77,0.777,1.493,1.572,2.189,2.367
				c0.145,0.162,0.287,0.322,0.428,0.479c0.216,0.242,0.424,0.476,0.624,0.7c1.602,1.796,2.668,2.993,2.668,2.993
				s0.765-1.622,1.529-3.243c0.752-1.634,1.505-3.269,1.505-3.269c2.947,8.122,5.262,16.245,7.536,24.293
				c-7.375-3.999-14.705-7.941-22.112-11.272c0,0,1.685-0.589,3.369-1.179c1.696-0.576,3.393-1.152,3.393-1.152
				s-1.042-1.167-2.604-2.919c-0.195-0.22-0.398-0.447-0.609-0.684c-0.137-0.153-0.276-0.31-0.417-0.468
				c-0.68-0.778-1.384-1.552-2.128-2.303c-1.469-1.523-2.977-3.089-4.519-4.689c-1.577-1.559-3.247-3.082-4.912-4.671
				c-6.772-6.212-14.56-12.167-23.026-16.988l-3.206-1.749c-1.078-0.562-2.107-1.218-3.233-1.681
				c-2.209-1.006-4.411-2.007-6.595-3.001c-4.497-1.69-8.89-3.454-13.338-4.629c-4.364-1.422-8.745-2.271-12.853-3.229
				c-0.515-0.117-1.025-0.233-1.532-0.349c-0.515-0.086-1.025-0.171-1.532-0.255c-1.014-0.169-2.013-0.334-2.995-0.497
				c-1.964-0.327-3.861-0.644-5.683-0.946c-3.67-0.465-7.05-0.808-10.038-1.157c-0.748-0.082-1.472-0.161-2.17-0.238
				c-0.703-0.046-1.381-0.09-2.032-0.133c-1.302-0.085-2.499-0.164-3.579-0.234c-4.321-0.284-6.791-0.446-6.791-0.446
				L206.141,362.452z"/>
		</g>
	</g>
</g>
<g>
	<g>
		<g>
			<path fill="#202020" d="M345.826,427.931c0,0,0.09-6.853,0.224-17.131c0.071-5.139,0.011-11.143,0.021-17.571
				c0.006-6.455-0.113-13.309,0.054-20.262c0.031-1.733,0.062-3.467,0.093-5.193c0.103-1.735,0.205-3.463,0.306-5.178
				c0.103-1.715,0.203-3.416,0.304-5.097c0.155-1.676,0.378-3.325,0.56-4.951c0.191-1.625,0.38-3.224,0.563-4.787
				c0.094-0.782,0.187-1.556,0.278-2.319c0.13-0.755,0.258-1.5,0.385-2.235c0.225-1.305,0.438-2.538,0.634-3.677
				c0.408-2.368,0.681-3.946,0.681-3.946s-1.744,0.41-3.489,0.82c-1.747,0.426-3.494,0.853-3.494,0.853l3.418-5.437
				c1.165-1.78,2.4-3.515,3.595-5.261l7.2-10.342l2.373,12.305c0.409,2.032,0.776,4.061,1.226,6.071l1.45,5.974
				c0,0-1.509-0.954-3.019-1.908c-1.506-0.97-3.013-1.939-3.013-1.939s-0.267,1.544-0.666,3.86c-0.192,1.113-0.4,2.32-0.62,3.596
				c-0.125,0.72-0.251,1.449-0.378,2.187c-0.088,0.74-0.178,1.49-0.268,2.247c-0.178,1.515-0.36,3.062-0.545,4.637
				c-0.176,1.574-0.394,3.172-0.545,4.795c-0.096,1.629-0.193,3.277-0.292,4.938s-0.197,3.336-0.298,5.018
				c-0.029,1.694-0.06,3.396-0.09,5.098c-0.165,6.787-0.048,13.678-0.053,20.106c-0.011,6.455,0.05,12.477-0.021,17.644
				c-0.135,10.334-0.226,17.224-0.226,17.224L345.826,427.931z"/>
		</g>
	</g>
</g>
<g>
	<g>
		<g>
			<path fill="#202020" d="M378,296.449c0,0,0.618,0.019,1.778,0.055c0.579,0.018,1.294,0.041,2.135,0.067
				c0.421,0.017,0.872,0.021,1.354,0.051c0.482,0.046,0.994,0.095,1.535,0.147c4.31,0.331,10.565,1.225,17.604,3.837
				c0.874,0.335,1.766,0.677,2.675,1.025c0.901,0.366,1.79,0.803,2.71,1.213c0.458,0.21,0.919,0.421,1.385,0.634
				c0.452,0.237,0.907,0.476,1.366,0.717c0.91,0.493,1.859,0.957,2.775,1.496c3.701,2.107,7.371,4.646,11.004,7.41
				c7.273,5.543,14.237,12.088,21.437,18.139c7.181,6.058,14.651,11.62,22.256,15.759c3.761,2.146,7.591,3.824,11.237,5.363
				c1.475,0.548,2.869,1.066,4.156,1.544c1.071,0.424,2.008,0.655,2.645,0.872c0.642,0.2,1.009,0.314,1.009,0.314
				s-0.165-1.779-0.283-3.544c-0.122-1.766-0.2-3.515-0.2-3.515c5.589,5.317,12.175,10.134,19.424,14.349
				c-8.059,2.244-16.63,3.771-25.679,4.168c0,0,1.26-1.333,2.474-2.682c1.219-1.348,2.392-2.71,2.392-2.71s-0.39-0.121-1.071-0.334
				c-0.676-0.229-1.667-0.478-2.809-0.926c-1.368-0.509-2.851-1.061-4.419-1.644c-3.881-1.632-7.958-3.427-11.948-5.701
				c-8.072-4.394-15.93-10.261-23.273-16.458c-7.354-6.189-14.28-12.685-21.203-17.951c-3.46-2.633-6.894-5.004-10.298-6.941
				c-0.845-0.498-1.711-0.917-2.545-1.371c-0.419-0.221-0.836-0.439-1.249-0.657c-0.424-0.193-0.844-0.385-1.26-0.574
				c-0.836-0.371-1.645-0.772-2.462-1.104c-0.823-0.314-1.631-0.624-2.422-0.927c-6.358-2.362-12.015-3.174-15.973-3.475
				c-0.494-0.049-0.962-0.095-1.402-0.138c-0.442-0.027-0.86-0.03-1.247-0.045c-0.774-0.024-1.434-0.045-1.968-0.062
				c-1.068-0.034-1.638-0.053-1.638-0.053V296.449z"/>
		</g>
	</g>
</g>
</svg>
