<?xml version="1.0" encoding="utf-8"?>
<!-- Generator: Adobe Illustrator 16.0.4, SVG Export Plug-In . SVG Version: 6.00 Build 0)  -->
<!DOCTYPE svg PUBLIC "-//W3C//DTD SVG 1.1//EN" "http://www.w3.org/Graphics/SVG/1.1/DTD/svg11.dtd">
<svg version="1.1" id="Layer_1" xmlns="http://www.w3.org/2000/svg" xmlns:xlink="http://www.w3.org/1999/xlink" x="0px" y="0px"
	 width="341.222px" height="276px" viewBox="0 0 341.222 276" enable-background="new 0 0 341.222 276" xml:space="preserve">
<g>
	<path fill-rule="evenodd" clip-rule="evenodd" fill="#EC4A46" d="M211.921,204.694c-0.703,1.23-1.271,2.562-2.134,3.67
		c-3.226,4.146-4.108,8.871-4.223,14.002c-0.218,10.177-0.78,20.346-1.112,30.521c-0.048,1.482-0.45,2.43-1.715,3.292
		c-6.586,4.476-13.732,7.505-21.628,8.695c-0.573,0.325-1.206,0.142-1.812,0.201c-0.581,0.09-1.223-0.178-1.74,0.289
		c-2.509,0.036-5.021,0.074-7.529,0.111c-0.469-0.435-1.042-0.171-1.568-0.233c-0.331,0.005-0.665,0.008-0.996,0.016
		c-0.338-0.002-0.678,0.046-0.979-0.157c-8.369-1.097-16.204-3.781-23.585-7.864c-1.442-0.797-2.089-1.745-2.224-3.485
		c-0.948-12.06-2.055-24.107-3.074-36.156c-0.091-1.067-0.554-1.908-1.099-2.745c-1.998-3.078-4.026-6.137-5.963-9.254
		c-0.322-0.519-1.261-0.965-0.618-1.85c0.377-0.241,0.725-0.051,1.077,0.074c0.334,0.139,0.658,0.306,0.99,0.452
		c0.16,0.067,0.316,0.146,0.468,0.229c0.223,0.116,0.445,0.246,0.676,0.347c0.157,0.057,0.309,0.125,0.457,0.201
		c0.232,0.094,0.472,0.178,0.718,0.238c0.26,0.054,0.514,0.125,0.761,0.211c0.265,0.089,0.532,0.17,0.804,0.241
		c0.3,0.063,0.591,0.135,0.883,0.215c0.331,0.071,0.659,0.139,0.99,0.203c1.49,0.306,2.92,0.87,4.463,0.936
		c6.487,1.242,13.029,1.833,19.628,2.136c4.429,0.206,8.852,0.445,13.266,0.196c7.242-0.412,14.488-0.84,21.624-2.258
		c2.507-0.262,4.931-0.974,7.394-1.473c0.451-0.103,0.916-0.176,1.364-0.308c0.302-0.098,0.61-0.172,0.92-0.252
		c0.286-0.095,0.573-0.188,0.855-0.286c0.276-0.099,0.56-0.158,0.848-0.196c0.371-0.065,0.735-0.156,1.079-0.321
		c0.176-0.093,0.35-0.178,0.529-0.26c0.278-0.148,0.563-0.271,0.872-0.337c0.336-0.055,0.647,0.048,0.96,0.146
		C211.877,204.061,212.066,204.3,211.921,204.694z"/>
	<path fill-rule="evenodd" clip-rule="evenodd" fill="#EC4A46" d="M227.867,72.253c-4.344,3.279-9.56,4.195-14.681,5.206
		c-18.862,3.732-37.932,4.739-57.123,4.021c-11.035-0.413-22.002-1.345-32.822-3.633c-2.613-0.554-5.216-1.184-7.633-2.371
		c-0.944-0.461-2.251-0.788-2.16-2.118c0.087-1.276,1.385-1.557,2.368-1.94c3.686-1.434,7.574-2.051,11.458-2.594
		c12.759-1.787,25.598-2.505,38.474-2.81c3.657-0.087,7.325-0.001,11.179-0.129c1.146-4.674,2.275-9.276,3.402-13.876
		c0.913-3.727,1.835-7.452,2.721-11.188c0.195-0.824,0.442-1.556,1.05-2.212c9.709-10.487,19.398-20.999,29.095-31.499
		c0.111-0.121,0.259-0.209,0.569-0.453c2.5,1.811,5.047,3.658,7.752,5.617c-4.707,5.382-9.317,10.648-13.929,15.916
		c-4.018,4.593-8.037,9.184-12.062,13.768c-0.665,0.758-1.186,1.546-1.454,2.565c-1.78,6.776-3.625,13.533-5.438,20.303
		c-0.062,0.229,0.001,0.493,0.005,0.859c1.824,0.485,3.739,0.393,5.626,0.468c9.187,0.36,18.356,0.837,27.401,2.659
		c2.208,0.441,4.357,1.024,6.188,2.435C227.857,71.584,227.862,71.918,227.867,72.253z"/>
	<path fill-rule="evenodd" clip-rule="evenodd" fill="#F6AF9D" d="M179.14,264.911c0.656-0.011,1.312-0.021,1.97-0.036
		c-0.033,0.146-0.046,0.29-0.036,0.437c-0.67,0.011-1.339,0.018-2.009,0.029c-0.174-0.129-0.22-0.235-0.141-0.321
		C178.991,264.95,179.063,264.91,179.14,264.911z"/>
	<path fill-rule="evenodd" clip-rule="evenodd" fill="#F17262" d="M179.14,264.911c-0.033,0.142-0.057,0.289-0.075,0.43
		c-0.502,0.009-1.003,0.014-1.507,0.024C177.941,264.717,178.551,264.847,179.14,264.911z"/>
	<path fill-rule="evenodd" clip-rule="evenodd" fill="#F2806F" d="M168.488,265.034c0.561-0.016,1.169-0.202,1.54,0.442
		c-0.504,0.009-1.005,0.019-1.508,0.024c-0.158-0.093-0.218-0.191-0.174-0.3C168.393,265.091,168.44,265.038,168.488,265.034z"/>
	<path fill-rule="evenodd" clip-rule="evenodd" fill="#F4A18F" d="M168.488,265.034c0.03,0.154,0.039,0.311,0.032,0.467
		c-0.333,0.006-0.669,0.009-1.003,0.017c-0.155-0.083-0.211-0.174-0.173-0.273c0.042-0.102,0.08-0.155,0.131-0.159
		C167.813,265.068,168.15,265.052,168.488,265.034z"/>
	<path fill-rule="evenodd" clip-rule="evenodd" fill="#FAD3C7" d="M167.476,265.084c0.026,0.146,0.04,0.286,0.042,0.433
		c-0.335,0.002-0.67,0.007-1.005,0.016c0.002-0.146-0.007-0.287-0.027-0.432C166.815,265.098,167.145,265.093,167.476,265.084z"/>
	<path fill-rule="evenodd" clip-rule="evenodd" fill="#EC4A46" d="M227.364,75.314c0.042,0.665,0.087,1.328,0.132,1.993
		c-1.436,14.193-2.875,28.385-4.305,42.576c-0.76,7.555-1.518,15.108-2.233,22.667c-0.085,0.875-0.283,1.566-0.974,2.175
		c-2.95,2.585-5.792,5.295-8.95,7.634c-0.995,0.737-2.021,1.541-3.369,0.884c-0.451-1.185,0.472-1.75,1.01-2.423
		c2.036-2.536,4.208-4.968,5.912-7.762c0.7-1.141,1.36-2.305,1.709-3.6c0.885-3.301-0.822-5.598-4.233-5.811
		c-1.75-0.109-3.281,0.458-4.722,1.357c-1.922,1.206-3.617,2.683-5.081,4.42c-0.154,0.188-0.322,0.185-0.49,0.016
		c0.088-0.747,0.185-1.487,0.264-2.233c0.104-1.032-0.265-1.848-1.271-2.178c-0.89-0.287-1.626,0.073-2.178,0.832
		c-1.251,1.724-1.909,3.716-2.441,5.731c-0.461,1.759-1.332,3.119-2.688,4.362c-2.348,2.146-4.625,4.363-7.303,6.09
		c-0.894,0.574-1.802,1.244-3.006,1.097c-1.359-1.065-0.571-2.381-0.195-3.438c1.583-4.48,3.286-8.924,5.021-13.35
		c2.282-5.825,4.645-11.617,6.963-17.423c0.214-0.543,0.432-1.089,0.565-1.653c0.28-1.22,0.234-2.32-1.152-2.936
		c-1.315-0.583-2.252,0.023-3.117,0.886c-0.539,0.542-0.766,1.275-1.029,1.981c-4.066,10.855-8.359,21.627-12.201,32.564
		c-0.599,1.714-3.781,4.009-5.615,4.043c-1.016,0.019-1.558-0.475-1.554-1.511c0.004-1.436,0.4-2.799,0.78-4.169
		c0.861-3.067,2.274-5.917,3.405-8.873c0.389-1.013,0.81-2.023,0.63-3.157c-0.144-0.899-0.575-1.569-1.477-1.831
		c-0.918-0.267-1.626,0.093-2.181,0.832c-0.919,1.229-1.324,2.681-1.811,4.103c-1.339,3.898-3.172,7.529-5.812,10.727
		c-1.135,1.373-2.44,2.545-4.132,3.147c-2.287,0.817-3.199,0.135-2.959-2.267c0.279-2.774,1.353-5.324,2.518-7.823
		c0.81-1.741,1.744-3.425,2.543-5.165c0.51-1.116,0.788-2.34-0.575-3.066c-1.239-0.655-2.445-0.418-3.392,0.659
		c-0.327,0.37-0.597,0.812-0.809,1.257c-2.284,4.835-4.313,9.771-5.569,14.981c-0.556,2.306-0.996,4.769,1.091,6.538
		c2.032,1.722,4.468,1.173,6.683,0.318c3.138-1.213,5.501-3.408,7.078-6.411c0.098-0.217,0.23-0.233,0.393-0.068
		c0.156,1.407-0.503,2.765-0.128,4.206c0.607,2.323,1.918,3.177,4.234,2.556c2.19-0.588,3.999-1.916,5.835-3.182
		c1.911,3.382,3.633,3.997,7.19,2.517c2.488-1.034,4.516-2.762,6.513-4.518c0.48-0.109,0.727,0.024,0.575,0.562
		c-2.088,4.82-4.196,9.633-6.249,14.469c-0.426,0.995-0.738,2.051-0.947,3.108c-0.194,0.998-0.158,2.026,0.91,2.64
		c1.082,0.62,2.117,0.392,3.051-0.295c1.359-0.996,1.849-2.541,2.353-4.048c1.999-6.022,4.26-11.948,6.866-17.735
		c1.942-4.31,4.394-8.275,8.047-11.358c1.517-1.279,3.181-2.427,5.364-1.617c0.475,1.441-0.35,2.371-1.027,3.279
		c-1.792,2.414-3.697,4.749-5.479,7.166c-0.838,1.137-1.669,2.339-2.199,3.634c-1.062,2.604,0.285,4.723,3.084,5.017
		c2.14,0.225,4.127-0.328,6.023-1.329c3.211-1.702,5.728-4.278,8.579-6.799c0.388,0.718,0.228,1.369,0.167,1.958
		c-1.066,10.807-2.151,21.61-3.231,32.418c-0.377,3.737-0.659,7.491-1.147,11.216c-0.392,2.982-1.723,5.511-4.343,7.202
		c-0.239,0.31-0.569,0.495-0.913,0.661c-0.171,0.076-0.344,0.149-0.513,0.231c-0.355,0.101-0.714,0.199-1.037,0.398
		c-0.169,0.079-0.347,0.135-0.525,0.182c-0.374,0.056-0.739,0.129-1.079,0.302c-0.263,0.135-0.532,0.238-0.821,0.293
		c-0.305,0.067-0.585,0.192-0.863,0.32c-0.413,0.199-0.866,0.178-1.297,0.265c-0.347,0.13-0.67,0.304-1.029,0.398
		c-2.652,0.435-5.273,1.008-7.892,1.599c-7.669,1.024-15.368,1.828-23.089,1.88c-9.298,0.067-18.599-0.292-27.786-1.99
		c-0.407-0.076-0.835-0.027-1.246-0.071c-1.375-0.429-2.81-0.618-4.208-0.963c-0.443-0.132-0.851-0.385-1.329-0.402
		c-0.321-0.012-0.639-0.05-0.934-0.187c-0.279-0.106-0.554-0.229-0.854-0.284c-0.285-0.044-0.553-0.141-0.814-0.264
		c-0.257-0.112-0.522-0.195-0.8-0.236c-0.28-0.046-0.535-0.161-0.788-0.272c-0.254-0.119-0.516-0.218-0.775-0.328
		c-0.261-0.118-0.557-0.112-0.82-0.233c-0.31-0.249-0.69-0.353-1.046-0.509c-0.281-0.258-0.722-0.355-0.835-0.796
		c-1.849-1.88-3.05-3.94-3.331-6.739c-1.136-11.308-2.51-22.595-3.783-33.89c-0.111-0.987-0.125-1.982-0.197-3.254
		c4.024,2.024,7.273,0.418,10.366-1.745c2.54-1.774,4.791-3.894,7.144-6.116c-0.781,2.737-1.603,5.464-2.338,8.214
		c-0.468,1.766-1.121,3.513-0.921,5.401c0.093,0.863,0.235,1.713,1.179,2.024c0.96,0.313,1.588-0.311,2.132-0.972
		c0.81-0.984,1.258-2.153,1.584-3.376c2.095-7.82,4.143-15.655,6.961-23.263c0.696-1.88,1.182-3.826,1.18-5.867
		c0-1.283-0.275-2.411-1.678-2.706c-1.328-0.274-2.342,0.458-2.811,1.615c-0.754,1.849-1.355,3.766-1.936,5.677
		c-2.034,6.676-6.67,11.307-12.187,15.104c-3.188,2.197-5.319,0.982-5.824-2.929c-0.529-4.09,0.508-7.949,1.806-11.763
		c2.276-6.708,5.479-12.91,10.187-18.265c1.22-1.386,2.598-2.606,4.241-3.479c2.846-1.514,5.126-0.968,6.966,1.665
		c0.717,1.026,1.289,2.169,2.109,3.101c1.267,1.442,2.723,1.15,3.514-0.609c0.63-1.409,0.401-2.786-0.32-4.091
		c-3.084-5.598-9.171-7.475-14.83-4.479c-5.272,2.79-8.848,7.308-11.958,12.232c-2.866,4.538-4.972,9.434-6.892,14.583
		c-2.294-20.667-4.585-41.339-6.882-62.061c16.291,5.249,32.907,6.488,49.66,6.752c15.923,0.25,31.746-0.817,47.412-3.795
		C216.285,78.975,221.959,77.625,227.364,75.314z"/>
	<path fill-rule="evenodd" clip-rule="evenodd" fill="#FFFFFF" d="M129.982,203.095c0.379,0.109,0.773,0.183,0.988,0.573
		c0.265,0.204,0.253,0.394-0.038,0.559c-0.43,0.037-0.714-0.234-1.011-0.48C129.942,203.529,129.963,203.314,129.982,203.095z"/>
	<path fill-rule="evenodd" clip-rule="evenodd" fill="#F18775" d="M211.921,204.694c-0.23-0.221-0.459-0.436-0.691-0.652
		c-0.041-0.076-0.079-0.154-0.122-0.231c0.071-0.05,0.143-0.103,0.21-0.151c0.39-0.041,0.789-0.242,1.168,0.047
		C212.467,204.132,212.313,204.479,211.921,204.694z"/>
	<path fill-rule="evenodd" clip-rule="evenodd" fill="#F38F7D" d="M191.455,154.177c-0.193-0.19-0.382-0.376-0.575-0.562
		c0.212-0.466,0.532-0.808,1.035-0.944c0.141,0.083,0.205,0.187,0.192,0.303c-0.016,0.128-0.044,0.192-0.084,0.193
		C191.951,153.568,191.821,153.938,191.455,154.177z"/>
	<path fill-rule="evenodd" clip-rule="evenodd" fill="#FCD6CA" d="M210.215,203.564c0.252-0.385,0.625-0.497,1.062-0.462
		c0.014,0.187,0.03,0.37,0.041,0.557l0.004-0.056C210.944,203.882,210.574,203.88,210.215,203.564z"/>
	<path fill-rule="evenodd" clip-rule="evenodd" fill="#FCD8CD" d="M192.023,153.167c-0.036-0.167-0.07-0.332-0.108-0.496
		c0.107-0.086,0.218-0.169,0.324-0.251C192.487,152.761,192.284,152.972,192.023,153.167z"/>
	<path fill-rule="evenodd" clip-rule="evenodd" fill="#F9B7A6" d="M201.77,139.441c0.162-0.001,0.327-0.007,0.49-0.016
		c-0.106,0.382-0.345,0.591-0.711,0.355C201.42,139.696,201.562,139.482,201.77,139.441z"/>
	<path fill-rule="evenodd" clip-rule="evenodd" fill="#FAD3C7" d="M167.236,152.037c-0.13,0.021-0.263,0.045-0.393,0.068
		c0.063-0.377,0.215-0.614,0.649-0.41C167.407,151.809,167.319,151.923,167.236,152.037z"/>
	<path fill-rule="evenodd" clip-rule="evenodd" fill="#FFF2ED" d="M142.697,207.054c4.809,0.505,9.584,1.276,14.419,1.603
		c10.013,0.675,20.006,0.546,29.988-0.479c2.819-0.289,5.638-0.607,8.454-0.909c0.62-0.035,1.411-0.695,1.697,0.468
		c-10.702,1.983-21.508,2.619-32.37,2.314c-7.003-0.195-13.986-0.69-20.898-1.928c-0.818-0.146-1.625-0.354-2.438-0.536
		C141.558,206.605,142.196,206.973,142.697,207.054z"/>
	<path fill-rule="evenodd" clip-rule="evenodd" fill="#FDE8E0" d="M197.256,207.736c-0.441-0.601-1.124-0.332-1.697-0.468
		c2.63-0.736,5.306-1.229,8-1.639c0.276,0.004,0.468-0.198,0.698-0.293c0.434-0.08,0.869-0.16,1.304-0.242
		c0.279,0.006,0.471-0.195,0.698-0.31c0.307-0.058,0.61-0.118,0.915-0.18c0.279-0.155,0.576-0.216,0.892-0.187
		c0.098,0.037,0.191,0.076,0.289,0.117c0.117,0.199,0.085,0.375-0.074,0.537c-0.26,0.055-0.521,0.102-0.779,0.155
		c-0.288-0.012-0.483,0.194-0.708,0.319c-0.295,0.062-0.591,0.119-0.887,0.178c-0.348,0.198-0.784,0.146-1.115,0.403
		C202.32,206.852,199.827,207.472,197.256,207.736z"/>
	<path fill-rule="evenodd" clip-rule="evenodd" fill="#FCE3D9" d="M142.697,207.054c-0.418,0.101-0.897,0.069-1.147,0.532
		c-1.596-0.042-3.07-0.636-4.587-1.026c-0.205-0.108-0.418-0.201-0.634-0.283c-0.292-0.054-0.582-0.108-0.872-0.164
		c-0.224-0.109-0.414-0.296-0.686-0.304c-0.278-0.07-0.559-0.144-0.836-0.216c-0.198-0.091-0.387-0.191-0.578-0.294l-0.213,0.004
		l-0.189-0.099c-0.067-0.094-0.133-0.189-0.198-0.283c0.067-0.095,0.133-0.187,0.204-0.281c0.23-0.047,0.457-0.027,0.678,0.046
		c0.281,0.062,0.561,0.122,0.838,0.183c0.224,0.111,0.415,0.297,0.684,0.305c0.279,0.056,0.553,0.118,0.833,0.173
		c0.222,0.115,0.414,0.296,0.682,0.309c0.274,0.039,0.55,0.083,0.823,0.123c0.343,0.232,0.777,0.181,1.14,0.359
		C140.04,206.224,141.402,206.5,142.697,207.054z"/>
	<path fill-rule="evenodd" clip-rule="evenodd" fill="#FFFFFF" d="M208.288,204.203c0.139-0.084,0.289-0.121,0.451-0.101
		c0.298-0.251,0.641-0.242,0.991-0.147c0.077,0.093,0.151,0.181,0.225,0.271c-0.063,0.099-0.131,0.196-0.197,0.293
		c-0.14,0.089-0.296,0.124-0.464,0.105c-0.339,0.274-0.673,0.308-1.017,0.006l0.004,0.002c-0.169-0.097-0.224-0.192-0.164-0.286
		C208.173,204.252,208.229,204.205,208.288,204.203z"/>
	<path fill-rule="evenodd" clip-rule="evenodd" fill="#FFFFFF" d="M210.215,203.564c0.368,0.013,0.738,0.027,1.106,0.039
		c0,0.152-0.03,0.297-0.092,0.438c-0.27,0.051-0.54,0.104-0.811,0.151c-0.235,0.106-0.452,0.078-0.649-0.092l0.014,0.012
		c-0.171-0.097-0.226-0.198-0.17-0.295c0.059-0.098,0.116-0.147,0.174-0.149C209.918,203.592,210.062,203.56,210.215,203.564z"/>
	<path fill-rule="evenodd" clip-rule="evenodd" fill="#FFFFFF" d="M130.933,204.227c0.011-0.187,0.026-0.374,0.038-0.559
		c0.38,0.041,0.767,0.067,1.04,0.398c0.216,0.237,0.196,0.453-0.068,0.646C131.511,204.75,131.231,204.473,130.933,204.227z"/>
	<path fill-rule="evenodd" clip-rule="evenodd" fill="#FFFFFF" d="M131.942,204.713c0.025-0.216,0.045-0.431,0.068-0.646
		c0.304,0.1,0.608,0.202,0.913,0.303c0.125,0.083,0.171,0.165,0.129,0.252c-0.04,0.089-0.076,0.134-0.119,0.134l0.003,0.003
		c-0.188,0.178-0.401,0.216-0.637,0.106C132.151,204.887,132.031,204.838,131.942,204.713z"/>
	<path fill-rule="evenodd" clip-rule="evenodd" fill="#FCDDD3" d="M204.791,206.128c0.262-0.438,0.677-0.459,1.115-0.403
		C205.59,206.012,205.233,206.182,204.791,206.128z"/>
	<path fill-rule="evenodd" clip-rule="evenodd" fill="#FCDDD3" d="M208.277,204.629c0.34-0.002,0.679-0.003,1.017-0.006
		c-0.262,0.318-0.586,0.504-1.014,0.449C208.284,204.923,208.285,204.779,208.277,204.629z"/>
	<path fill-rule="evenodd" clip-rule="evenodd" fill="#FCDDD3" d="M206.793,205.547c0.168-0.255,0.409-0.348,0.708-0.319
		C207.32,205.461,207.092,205.582,206.793,205.547z"/>
	<path fill-rule="evenodd" clip-rule="evenodd" fill="#FCE0D6" d="M136.329,206.277c0.211,0.095,0.422,0.188,0.634,0.283
		C136.751,206.464,136.541,206.372,136.329,206.277z"/>
	<path fill-rule="evenodd" clip-rule="evenodd" fill="#FCE0D6" d="M134.772,205.809c0.229,0.104,0.456,0.202,0.686,0.304
		C135.228,206.011,135.001,205.914,134.772,205.809z"/>
	<path fill-rule="evenodd" clip-rule="evenodd" fill="#FCD6CA" d="M209.77,204.101c0.214,0.029,0.433,0.063,0.647,0.097
		c-0.144,0.256-0.362,0.366-0.659,0.32C209.764,204.378,209.769,204.242,209.77,204.101z"/>
	<path fill-rule="evenodd" clip-rule="evenodd" fill="#FCE2D8" d="M133.358,205.299c0.19,0.099,0.385,0.197,0.578,0.294
		C133.744,205.497,133.549,205.398,133.358,205.299z"/>
	<path fill-rule="evenodd" clip-rule="evenodd" fill="#FCE2D8" d="M132.3,204.865c0.212-0.037,0.425-0.07,0.637-0.106
		c0.012,0.148,0.017,0.296,0.02,0.446C132.665,205.23,132.444,205.123,132.3,204.865z"/>
	<path fill-rule="evenodd" clip-rule="evenodd" fill="#FDEEE8" d="M174.182,73.554c4.556,2.364,8.952,1.837,13.387,0.206
		C184.051,77.113,174.86,76.88,174.182,73.554z"/>
	<path fill-rule="evenodd" clip-rule="evenodd" fill="#FCD6CA" d="M209.787,203.668c-0.008,0.151-0.01,0.299-0.004,0.444
		c-0.348-0.002-0.696-0.005-1.044-0.011C209.017,203.779,209.346,203.591,209.787,203.668z"/>
	<path fill-rule="evenodd" clip-rule="evenodd" fill="#FCDDD3" d="M208.288,204.203c-0.005,0.143-0.005,0.286-0.007,0.429
		c-0.366-0.007-0.734-0.016-1.103-0.025C207.483,204.304,207.841,204.126,208.288,204.203z"/>
	<path fill-rule="evenodd" clip-rule="evenodd" fill="#FCE0D6" d="M138.639,206.137c-0.433,0.052-0.858,0.074-1.14-0.359
		C137.931,205.733,138.305,205.871,138.639,206.137z"/>
	<path fill-rule="evenodd" clip-rule="evenodd" fill="#FCE2D8" d="M132.934,204.755c-0.007-0.127-0.012-0.26-0.011-0.386
		c0.24,0.105,0.478,0.21,0.715,0.318C133.406,204.71,133.169,204.731,132.934,204.755z"/>
	<path fill-rule="evenodd" clip-rule="evenodd" fill="#FCDDD3" d="M204.257,205.336c-0.17,0.242-0.413,0.326-0.698,0.293
		C203.792,205.53,204.026,205.431,204.257,205.336z"/>
	<path fill-rule="evenodd" clip-rule="evenodd" fill="#FCDDD3" d="M206.259,204.785c-0.166,0.252-0.407,0.343-0.698,0.31
		C205.792,204.991,206.028,204.887,206.259,204.785z"/>
	<path fill-rule="evenodd" clip-rule="evenodd" fill="#FCE0D6" d="M136.676,205.655c-0.226-0.104-0.455-0.206-0.682-0.309
		C136.221,205.449,136.45,205.551,136.676,205.655z"/>
	<path fill-rule="evenodd" clip-rule="evenodd" fill="#FCE0D6" d="M135.162,205.173c-0.228-0.104-0.454-0.2-0.684-0.305
		C134.708,204.973,134.934,205.07,135.162,205.173z"/>
</g>
</svg>
