<?xml version="1.0" encoding="utf-8"?>
<!-- Generator: Adobe Illustrator 16.0.4, SVG Export Plug-In . SVG Version: 6.00 Build 0)  -->
<!DOCTYPE svg PUBLIC "-//W3C//DTD SVG 1.1//EN" "http://www.w3.org/Graphics/SVG/1.1/DTD/svg11.dtd">
<svg version="1.1" id="Layer_1" xmlns="http://www.w3.org/2000/svg" xmlns:xlink="http://www.w3.org/1999/xlink" x="0px" y="0px"
	 width="800px" height="600px" viewBox="-229.389 -162 800 600" enable-background="new -229.389 -162 800 600"
	 xml:space="preserve">
<g>
	<g>
		<g>
			<g>
				<polygon fill="#202020" points="-46.772,8.032 -52.282,14.266 -46.73,17.947 -59.085,17.168 -61.374,5.001 -57.039,10.06 
					-51.529,3.827 				"/>
			</g>
		</g>
		<g>
			<g>
				<polygon fill="#202020" points="-64.019,27.542 -68.93,33.098 -72.472,37.104 -65.674,39.376 -88.332,50.253 -80.318,26.431 
					-77.23,32.899 -73.687,28.892 -68.776,23.336 				"/>
			</g>
		</g>
		<g>
			<g>
				<polygon fill="#202020" points="-93.266,60.626 -98.177,66.182 -101.719,70.188 -94.922,72.46 -117.579,83.337 -109.565,59.515 
					-106.477,65.983 -102.934,61.976 -98.023,56.42 				"/>
			</g>
		</g>
		<g>
			<g>
				<polygon fill="#202020" points="-122.513,93.71 -127.425,99.266 -130.967,103.273 -124.169,105.544 -146.826,116.421 
					-138.812,92.599 -135.724,99.067 -132.182,95.061 -127.27,89.504 				"/>
			</g>
		</g>
		<g>
			<g>
				<polygon fill="#202020" points="-151.76,126.794 -157.27,133.027 -151.718,136.708 -164.073,135.93 -166.362,123.763 
					-162.028,128.822 -156.517,122.589 				"/>
			</g>
		</g>
	</g>
</g>
<g>
	<g>
		<g>
			<path fill="#202020" d="M450.389-122.469c0,0-0.692,0.517-2.033,1.518c-1.343,0.997-3.346,2.452-5.971,4.312
				c-2.627,1.831-5.868,4.09-9.678,6.745c-3.796,2.642-8.153,5.66-12.88,9.181c-4.721,3.523-9.845,7.535-14.912,12.35
				c-5.053,4.803-10.098,10.453-13.87,17.329c-1.885,3.428-3.401,7.168-4.352,11.164c-0.464,1.999-0.834,4.051-0.999,6.158
				c-0.043,0.527-0.085,1.055-0.128,1.585c-0.044,0.529-0.028,1.124-0.045,1.686c-0.02,1.14-0.038,2.287-0.058,3.442
				c-0.051,4.625-0.215,9.34-0.182,14.221c0.045,4.884,0.091,9.88,0.138,14.983c0.052,5.115,0.104,10.335,0.157,15.657
				c0.045,5.326,0.152,10.743,0.08,16.278c-0.033,5.53-0.067,11.154-0.102,16.865c-0.013,2.854-0.193,5.786-0.284,8.708
				c-0.038,1.463-0.214,2.943-0.315,4.422c-0.137,1.481-0.201,2.963-0.399,4.458c-0.197,1.495-0.396,2.994-0.596,4.498
				c-0.083,0.752-0.222,1.506-0.379,2.262l-0.446,2.27c-0.161,0.758-0.273,1.518-0.476,2.276l-0.628,2.278
				c-0.218,0.76-0.406,1.523-0.65,2.283l-0.851,2.269c-1.102,3.029-2.744,6.015-4.839,8.723c-2.075,2.757-4.876,4.951-7.64,6.718
				c-2.79,1.772-5.57,3.166-8.094,4.688c-2.547,1.492-4.767,3.222-6.772,5.23c-3.972,4.038-6.864,9.312-8.959,15.063
				c-0.998,2.899-2.006,5.822-2.721,8.884c-0.849,3.009-1.411,6.137-2.046,9.251c-0.349,1.548-0.529,3.148-0.793,4.728
				c-0.245,1.584-0.492,3.171-0.738,4.761c-0.374,3.208-0.749,6.426-1.125,9.654c-1.263,12.966-1.745,26.21-1.983,39.562
				c-0.031,3.342-0.062,6.688-0.094,10.042c-0.046,3.362-0.052,6.797-0.147,10.203c-0.189,6.829-0.657,13.687-1.427,20.546
				c-0.776,6.859-1.99,13.719-3.76,20.493c-1.786,6.764-4.17,13.475-7.683,19.734c-3.442,6.263-8.105,12.073-13.973,16.472
				c-5.818,4.482-12.762,7.249-19.719,8.81c-6.998,1.482-14.058,1.857-20.958,1.687c-6.914-0.145-13.702-0.803-20.394-1.47
				c-6.691-0.676-13.293-1.393-19.803-1.722c-6.486-0.283-12.938-0.237-18.941,1.044c-5.995,1.253-11.434,3.897-15.403,8.131
				c-4.022,4.19-6.582,9.729-8.15,15.591c-1.677,5.848-2.557,11.855-2.233,17.75c0.291,5.891,1.668,11.637,3.964,16.96
				c2.288,5.33,5.459,10.233,9.141,14.655c3.685,4.426,7.872,8.384,12.301,11.941c4.436,3.555,9.118,6.712,13.904,9.541
				c0.403,0.234,0.801,0.465,1.191,0.691c0.271,0.158,0.532,0.31,0.783,0.456c2.034,1.123,3.391,1.872,3.391,1.872
				s0.189-1.776,0.379-3.553c0.217-1.761,0.435-3.521,0.435-3.521c4.716,6.332,10.111,12.516,16.266,18.155
				c-4.189,0.263-8.455,0.239-12.753,0.057c-4.3-0.193-8.654-0.554-13.044-1.148c0,0,1.446-1.089,2.893-2.178
				c1.418-1.104,2.836-2.209,2.836-2.209s-1.428-0.762-3.543-1.957c-0.263-0.152-0.536-0.312-0.819-0.476
				c-0.409-0.238-0.824-0.479-1.246-0.725c-5.012-2.962-9.937-6.279-14.646-10.054c-4.702-3.777-9.195-8.014-13.207-12.83
				c-4.006-4.812-7.524-10.227-10.094-16.21c-2.578-5.97-4.148-12.505-4.473-19.161c-0.362-6.664,0.628-13.378,2.467-19.79
				c1.729-6.419,4.659-13.014,9.661-18.239c2.474-2.605,5.426-4.805,8.626-6.449c3.201-1.655,6.617-2.774,10.051-3.511
				c6.894-1.459,13.801-1.464,20.574-1.176c6.777,0.344,13.472,1.074,20.131,1.745c6.657,0.666,13.296,1.304,19.896,1.439
				c6.597,0.167,13.164-0.208,19.464-1.541c6.255-1.415,12.25-3.819,17.252-7.678c5.047-3.785,9.132-8.825,12.246-14.489
				c3.172-5.64,5.407-11.877,7.091-18.268c1.673-6.402,2.844-12.977,3.593-19.61c0.744-6.635,1.201-13.309,1.387-19.988
				c0.093-3.348,0.099-6.661,0.145-10.033c0.031-3.381,0.063-6.757,0.095-10.125c0.24-13.479,0.726-26.865,2.014-40.091
				c0.385-3.305,0.769-6.599,1.151-9.883c0.254-1.64,0.507-3.276,0.761-4.91c0.272-1.632,0.459-3.268,0.82-4.889
				c0.66-3.246,1.246-6.487,2.143-9.685c0.754-3.213,1.831-6.374,2.918-9.508c2.274-6.225,5.537-12.366,10.394-17.308
				c2.416-2.436,5.187-4.552,8.005-6.201c2.803-1.682,5.56-3.071,7.959-4.604c2.391-1.542,4.492-3.188,6.084-5.314
				c1.609-2.101,2.95-4.46,3.895-7.081l0.733-1.944c0.214-0.666,0.381-1.357,0.574-2.033l0.564-2.033
				c0.183-0.679,0.286-1.395,0.434-2.088l0.411-2.091c0.146-0.693,0.276-1.391,0.354-2.106c0.188-1.418,0.375-2.833,0.562-4.242
				c0.188-1.409,0.249-2.848,0.38-4.263c0.097-1.423,0.268-2.826,0.305-4.25c0.086-2.851,0.263-5.646,0.276-8.484
				c0.033-5.672,0.066-11.258,0.1-16.751c0.072-5.488-0.035-10.907-0.079-16.219c-0.054-5.316-0.106-10.532-0.158-15.642
				c-0.047-5.122-0.093-10.136-0.138-15.038c-0.033-4.904,0.131-9.747,0.185-14.439c0.021-1.175,0.04-2.342,0.06-3.502
				c0.019-0.587,0.001-1.141,0.049-1.75s0.096-1.215,0.144-1.82c0.193-2.417,0.615-4.784,1.151-7.082
				c1.094-4.596,2.836-8.871,4.951-12.72c4.246-7.725,9.73-13.805,15.066-18.886c5.361-5.092,10.664-9.234,15.497-12.842
				c4.841-3.606,9.241-6.653,13.05-9.304c3.793-2.643,7.019-4.891,9.634-6.714c2.589-1.835,4.549-3.26,5.857-4.231
				c1.305-0.974,1.979-1.477,1.979-1.477L450.389-122.469z"/>
		</g>
	</g>
</g>
<circle stroke="#FFFFFF" stroke-width="2" stroke-miterlimit="10" cx="449.735" cy="-123.5" r="10"/>
<circle stroke="#FFFFFF" stroke-width="2" stroke-miterlimit="10" cx="382.374" cy="32.43" r="10"/>
<g>
	<g>
		<g>
			<path fill="#202020" d="M250.873-113.757c0,0-0.075,1.508-0.216,4.336c-0.104,2.856-0.178,7.106-0.312,12.484
				c-0.184,5.376-0.164,11.939-0.183,19.462c0.004,7.523-0.087,16.007-0.013,25.27c0.127,9.266,0.264,19.304,0.409,29.921
				c0.072,5.308,0.146,10.762,0.223,16.335c0.056,2.775,0.037,5.632,0.155,8.421c0.068,1.388,0.138,2.782,0.207,4.183
				c0.069,1.4,0.109,2.813,0.311,4.201c0.341,2.787,0.562,5.628,1.19,8.384l0.4,2.089c0.133,0.698,0.251,1.402,0.468,2.074
				c0.382,1.36,0.766,2.726,1.15,4.094c1.763,5.381,4.241,10.534,7.684,15.086c3.418,4.574,7.759,8.515,12.527,12.159
				c4.766,3.653,9.928,7.076,14.963,10.855c5.043,3.764,9.94,7.917,14.321,12.584c4.348,4.707,8.074,9.919,11.305,15.333
				c6.252,10.971,10.189,22.739,12.837,34.219c0.335,1.438,0.669,2.869,1,4.293c0.26,1.436,0.519,2.864,0.775,4.287
				c0.487,2.847,1.099,5.654,1.406,8.46c0.368,2.801,0.733,5.57,1.094,8.308c0.303,2.739,0.499,5.452,0.749,8.124
				c0.228,2.674,0.51,5.31,0.596,7.91c0.016,0.304,0.03,0.604,0.045,0.897c0.017,0.322,0.032,0.635,0.047,0.934
				c0.119,2.394,0.199,3.988,0.199,3.988l6.447-3.175c-2.742,8.088-5.998,15.946-9.117,23.669
				c-3.396-7.711-6.658-15.296-10.399-22.619l6.727,2.42c0,0-0.078-1.569-0.195-3.923c-0.015-0.294-0.03-0.601-0.046-0.918
				c-0.015-0.289-0.029-0.584-0.044-0.883c-0.084-2.562-0.362-5.139-0.585-7.759c-0.245-2.617-0.437-5.279-0.732-7.958
				c-0.353-2.668-0.708-5.37-1.068-8.101c-0.298-2.744-0.895-5.455-1.365-8.219c-0.249-1.379-0.499-2.766-0.75-4.158
				c-0.32-1.373-0.643-2.752-0.966-4.138c-2.55-11.076-6.326-22.257-12.144-32.47c-3.011-5.032-6.445-9.843-10.463-14.196
				c-4.058-4.318-8.617-8.198-13.479-11.828c-4.853-3.646-10.008-7.062-15.021-10.9c-5.005-3.823-9.855-8.187-13.734-13.376
				c-3.908-5.164-6.723-11.029-8.66-16.976c-0.423-1.502-0.845-3-1.264-4.493c-0.235-0.743-0.364-1.499-0.51-2.252l-0.435-2.254
				c-0.673-2.996-0.913-5.993-1.272-8.958c-0.21-1.484-0.254-2.959-0.328-4.428c-0.072-1.469-0.145-2.932-0.216-4.388
				c-0.121-2.898-0.101-5.684-0.157-8.487c-0.076-5.583-0.15-11.045-0.224-16.362c-0.145-10.634-0.282-20.688-0.409-29.969
				c-0.075-9.284,0.017-17.804,0.013-25.351c0.019-7.548-0.001-14.124,0.184-19.563c0.137-5.438,0.209-9.688,0.317-12.625
				c0.148-2.961,0.228-4.541,0.228-4.541L250.873-113.757z"/>
		</g>
	</g>
</g>
<circle stroke="#FFFFFF" stroke-width="2" stroke-miterlimit="10" cx="246.891" cy="-114" r="10"/>
<circle stroke="#FFFFFF" stroke-width="2" stroke-miterlimit="10" cx="246.891" cy="1.43" r="10"/>
<circle stroke="#FFFFFF" stroke-width="2" stroke-miterlimit="10" cx="331.54" cy="195.43" r="10"/>
<g>
	<g>
		<g>
			<path fill="#202020" d="M46.023-140.993c0,0,0.021,2.006,0.062,5.769c0.125,3.753,0.289,9.271,1.079,16.204
				c0.379,3.469,0.967,7.277,1.77,11.379c0.854,4.086,1.964,8.458,3.555,12.964c3.133,8.995,8.387,18.598,17.066,26.351
				c4.311,3.887,9.401,7.294,15.041,10.339c5.635,3.066,11.81,5.776,18.193,8.848c6.352,3.084,13.038,6.584,18.959,11.761
				c2.934,2.59,5.667,5.566,7.894,8.942c2.237,3.366,4.016,7.059,5.331,10.896c2.631,7.699,3.497,15.839,3.559,23.904
				c-0.018,7.902-0.034,15.871-0.175,23.86c-0.062,15.977,0.052,32.265,0.123,48.539c0.019,4.069,0.038,8.138,0.057,12.202
				c0.033,4.167-0.21,8.545-1.113,12.777c-0.909,4.238-2.351,8.431-4.51,12.24c-1.037,1.928-2.302,3.712-3.61,5.441
				c-1.351,1.696-2.795,3.3-4.333,4.785c-6.194,5.93-13.426,10.073-20.494,13.709c-7.1,3.633-14.164,6.795-20.817,10.278
				c-6.639,3.48-12.9,7.265-18.253,11.804c-5.358,4.519-9.768,9.785-12.943,15.574c-1.595,2.889-2.895,5.892-3.941,8.943
				c-0.103,0.314-0.205,0.623-0.304,0.928c-0.095,0.289-0.187,0.568-0.275,0.836c-0.325,1.083-0.561,1.998-0.744,2.633
				c-0.093,0.316-0.156,0.568-0.192,0.743c-0.04,0.173-0.061,0.265-0.061,0.265c0,0,1.746-0.268,3.521-0.445
				c1.765-0.188,3.508-0.305,3.508-0.305c-4.998,5.422-9.101,12.489-12.441,20.171c-3.146-7.734-5.673-16.171-6.337-25.59
				c0,0,1.368,1.232,2.758,2.394c1.376,1.165,2.824,2.267,2.824,2.267s0.023-0.101,0.067-0.29c0.04-0.189,0.109-0.466,0.21-0.814
				c0.199-0.698,0.459-1.701,0.818-2.894c0.097-0.296,0.198-0.604,0.303-0.925c0.111-0.336,0.223-0.678,0.337-1.024
				c1.157-3.375,2.605-6.727,4.393-9.962c3.552-6.486,8.531-12.41,14.402-17.354c5.868-4.971,12.548-8.98,19.41-12.58
				c6.87-3.594,13.979-6.776,20.861-10.301c6.865-3.52,13.571-7.434,18.981-12.628c1.346-1.299,2.588-2.684,3.746-4.132
				c1.111-1.478,2.19-2.986,3.062-4.617c1.826-3.215,3.046-6.765,3.841-10.443c0.786-3.708,1.008-7.489,0.98-11.447
				c-0.019-4.066-0.038-8.137-0.057-12.208c-0.071-16.284-0.187-32.555-0.124-48.627c0.142-8.033,0.157-15.963,0.175-23.768
				c-0.053-7.61-0.893-15.103-3.213-21.874c-1.159-3.379-2.695-6.554-4.606-9.433c-1.903-2.887-4.237-5.427-6.801-7.695
				c-5.165-4.527-11.334-7.817-17.536-10.818c-6.219-2.996-12.521-5.757-18.456-8.982c-5.937-3.204-11.5-6.905-16.262-11.201
				c-2.389-2.134-4.575-4.412-6.524-6.788c-1.954-2.371-3.728-4.803-5.242-7.298c-3.105-4.952-5.317-10.029-7.039-14.869
				c-3.412-9.719-4.802-18.532-5.647-25.738c-0.823-7.224-0.99-12.908-1.118-16.778c-0.042-3.868-0.063-5.931-0.063-5.931
				L46.023-140.993z"/>
		</g>
	</g>
</g>
<circle stroke="#FFFFFF" stroke-width="2" stroke-miterlimit="10" cx="135.366" cy="6.93" r="10"/>
<circle stroke="#FFFFFF" stroke-width="2" stroke-miterlimit="10" cx="135.366" cy="91.93" r="10"/>
<g>
	<g>
		<g>
			<path fill="#202020" d="M46.023-139.996c0,0-0.126,103.819-0.251,207.638c0.054,25.955-0.285,51.91-0.469,76.243
				c-0.142,16.524-0.274,31.947-0.388,45.166c-0.021,2.377-0.034,3.961-0.034,3.961l6.622-2.749l-9.97,23.078l-9.574-23.232
				l6.574,2.853c0,0,0.013-1.584,0.034-3.96c0.114-13.217,0.246-28.637,0.388-45.157c0.184-24.329,0.523-50.277,0.469-76.23
				c0.125-103.809,0.251-207.617,0.251-207.617L46.023-139.996z"/>
		</g>
	</g>
</g>
<circle stroke="#FFFFFF" stroke-width="2" stroke-miterlimit="10" cx="42.848" cy="5.93" r="10"/>
<circle stroke="#FFFFFF" stroke-width="2" stroke-miterlimit="10" cx="42.848" cy="91.93" r="10"/>
<g>
	<g>
		<g>
			<path fill="#202020" d="M46.023-141c0,0-0.023,2.068-0.068,5.945c-0.14,3.88-0.281,9.577-1.069,16.825
				c-0.831,7.228-2.119,16.083-5.538,25.876c-0.431,1.221-0.88,2.458-1.414,3.693c-0.49,1.248-1.066,2.488-1.668,3.74
				c-0.565,1.266-1.294,2.487-1.954,3.757c-0.755,1.224-1.457,2.5-2.319,3.709c-3.262,4.938-7.687,9.563-12.982,13.341
				c-5.298,3.797-11.421,6.636-17.725,8.996c-6.304,2.387-12.85,4.336-19.087,6.976c-6.233,2.61-12.132,6.082-16.57,11.193
				c-4.468,5.07-7.41,11.629-9.112,18.729c-1.735,7.105-2.382,14.704-2.468,22.415c-0.009,7.87-0.017,15.835-0.026,23.865
				c0,16.083,0,32.422,0,48.761c0,4.084,0,8.169,0,12.25c-0.001,1.022-0.005,2.052,0.027,2.998c0.014,0.968,0.041,1.934,0.128,2.89
				l0.107,1.437l0.176,1.421c0.093,0.954,0.288,1.88,0.448,2.815c0.689,3.728,1.974,7.26,3.705,10.525
				c1.794,3.234,4.084,6.175,6.803,8.747c5.435,5.17,12.243,8.971,19.188,12.412c6.963,3.45,14.153,6.576,21.049,10.269
				c6.896,3.662,13.539,7.931,19.199,13.251c5.689,5.274,10.211,11.649,13.288,18.385c1.558,3.363,2.755,6.815,3.676,10.261
				c0.098,0.352,0.194,0.697,0.288,1.038c0.076,0.325,0.148,0.641,0.218,0.942c0.589,2.412,0.853,4.038,0.854,4.038
				c0,0,1.49-1.014,2.966-2.092c1.472-1.07,2.891-2.208,2.891-2.208c-0.64,4.623-1.678,9.001-2.951,13.176
				c-1.305,4.173-2.867,8.145-4.552,11.968c-1.571-3.895-3.276-7.646-5.188-11.169c-1.939-3.516-4.065-6.795-6.382-9.706
				c0,0,1.757,0.223,3.496,0.526c1.731,0.299,3.477,0.662,3.477,0.662c0,0-0.244-1.504-0.783-3.71
				c-0.064-0.277-0.13-0.565-0.199-0.863c-0.086-0.311-0.174-0.626-0.264-0.945c-0.839-3.143-1.921-6.258-3.316-9.267
				c-2.762-6.03-6.736-11.648-11.864-16.406c-5.098-4.795-11.226-8.767-17.842-12.279c-6.611-3.544-13.717-6.637-20.88-10.182
				c-7.129-3.546-14.484-7.565-20.754-13.509c-3.125-2.955-5.863-6.443-7.991-10.297c-2.069-3.88-3.571-8.077-4.364-12.353
				c-0.187-1.07-0.404-2.139-0.513-3.213l-0.198-1.611l-0.122-1.611c-0.095-1.075-0.127-2.147-0.143-3.218
				c-0.034-1.093-0.029-2.103-0.028-3.121c0-4.081,0-8.166,0-12.25c0-16.339,0-32.678,0-48.761
				c0.009-8.054,0.018-16.044,0.026-23.938c0.093-8.036,0.753-16.062,2.65-23.853c0.947-3.888,2.219-7.714,3.949-11.346
				c1.724-3.629,3.923-7.051,6.556-10.06c2.615-3.029,5.701-5.561,8.918-7.666c3.222-2.118,6.601-3.767,9.945-5.185
				c6.705-2.828,13.281-4.774,19.328-7.072c6.053-2.265,11.602-4.87,16.281-8.226c4.673-3.345,8.508-7.341,11.402-11.721
				c2.968-4.329,5.019-8.985,6.634-13.469c3.161-9.035,4.418-17.498,5.21-24.44c0.759-6.969,0.897-12.516,1.034-16.286
				c0.043-3.781,0.066-5.798,0.066-5.798H46.023z"/>
		</g>
	</g>
</g>
<circle stroke="#FFFFFF" stroke-width="2" stroke-miterlimit="10" cx="-49.152" cy="5.93" r="10"/>
<circle stroke="#FFFFFF" stroke-width="2" stroke-miterlimit="10" cx="-49.152" cy="90.93" r="10"/>
<circle stroke="#FFFFFF" stroke-width="2" stroke-miterlimit="10" cx="42.848" cy="-141" r="10"/>
<circle stroke="#FFFFFF" stroke-width="2" stroke-miterlimit="10" cx="41.531" cy="211.341" r="10"/>
<g>
	<g>
		<g>
			<path fill="#202020" d="M44.706,211.327c0,0,0.019,0.865,0.055,2.489c0.018,0.812,0.04,1.812,0.065,2.989
				c0.068,1.171,0.146,2.518,0.234,4.026c0.438,5.993,1.276,14.673,4.635,24.221c1.7,4.742,4.13,9.638,7.608,14.083
				c1.777,2.187,3.798,4.255,6.072,6.134c2.31,1.835,4.87,3.459,7.637,4.84c5.54,2.771,11.928,4.406,18.566,5.341
				c6.662,0.899,13.594,1.113,20.572,1.014c6.979-0.084,14.014-0.473,21.001-0.73c6.993-0.238,13.948-0.424,20.802,0.159
				c3.423,0.294,6.822,0.778,10.138,1.615c3.31,0.837,6.552,2.044,9.492,3.796c0.733,0.439,1.462,0.875,2.133,1.408
				c0.688,0.504,1.368,1.005,1.976,1.598c0.203,0.185,0.402,0.367,0.598,0.546c0.268,0.251,0.541,0.479,0.759,0.742
				c0.915,1.011,1.674,1.858,2.104,2.525c0.462,0.646,0.725,1.015,0.725,1.015s0.922-1.556,1.698-3.294
				c0.396-0.865,0.757-1.763,0.979-2.429c0.225-0.682,0.375-1.136,0.375-1.136c0.66,1.291,1.059,2.694,1.508,4
				c0.359,1.342,0.657,2.672,0.853,3.968c0.336,2.611,0.377,5.098,0.114,7.445c-0.489,4.698-1.839,8.843-3.451,12.695
				c-1.628-3.859-3.609-7.467-6.011-10.253c-2.388-2.801-5.168-4.622-7.808-5.084c0,0,0.383-0.193,0.957-0.482
				c0.592-0.291,1.363-0.62,2.16-0.912c1.593-0.601,3.33-1.018,3.33-1.018s-0.198-0.274-0.545-0.756
				c-0.314-0.509-0.892-1.126-1.563-1.884c-0.157-0.199-0.366-0.364-0.567-0.551c-0.146-0.133-0.295-0.269-0.446-0.406
				c-0.444-0.447-0.966-0.821-1.487-1.203c-0.499-0.407-1.069-0.739-1.638-1.08c-4.576-2.737-10.586-4.003-16.917-4.539
				c-6.358-0.546-13.125-0.38-20.029-0.141c-6.916,0.254-13.999,0.646-21.155,0.733c-7.149,0.102-14.386-0.109-21.52-1.071
				c-7.114-1.002-14.177-2.777-20.516-5.94c-3.161-1.574-6.128-3.454-8.812-5.591c-2.649-2.183-5.001-4.592-7.052-7.123
				c-4.021-5.132-6.74-10.668-8.613-15.886c-3.685-10.51-4.523-19.646-4.994-25.934c-0.091-1.578-0.173-2.987-0.244-4.213
				c-0.027-1.225-0.05-2.267-0.068-3.11c-0.037-1.689-0.057-2.59-0.057-2.59L44.706,211.327z"/>
		</g>
	</g>
</g>
<circle stroke="#FFFFFF" stroke-width="2" stroke-miterlimit="10" cx="182.374" cy="309.43" r="10"/>
<text transform="matrix(1 0 0 1 -25.8889 -100.5)" font-family="'MyriadPro-Regular'" font-size="18">split</text>
<text transform="matrix(1 0 0 1 -54.8889 195.4297)" font-family="'MyriadPro-Regular'" font-size="18">merge</text>
<text transform="matrix(1 0 0 1 123.366 260.8643)" font-family="'MyriadPro-Regular'" font-size="18">merge</text>
<text transform="matrix(1 0 0 1 365.1111 168.5)" font-family="'MyriadPro-Regular'" font-size="18">merge</text>
<g>
	<g>
		<g>
			<path fill="#202020" d="M538.634-52.709c0,0-0.804-0.109-2.312-0.313c-1.531-0.194-3.789-0.458-6.674-0.73
				c-5.767-0.538-14.052-1.131-23.966-1.043c-4.953,0.056-10.317,0.261-15.926,0.859c-5.602,0.601-11.482,1.504-17.305,3.141
				c-1.469,0.376-2.896,0.877-4.351,1.341c-1.415,0.542-2.873,1.034-4.248,1.685c-1.417,0.584-2.748,1.315-4.104,2.019l-1.944,1.182
				c-0.654,0.387-1.255,0.873-1.889,1.304c-4.986,3.633-9.487,8.412-13.678,13.451c-4.206,5.045-8.11,10.427-11.898,15.789
				c-3.765,5.424-7.47,10.762-11.055,15.927c-3.626,5.179-7.202,10.176-10.902,14.762c-0.925,1.146-1.841,2.275-2.792,3.361
				c-0.158,0.184-0.312,0.364-0.465,0.542c-0.215,0.25-0.422,0.491-0.621,0.723c-0.832,0.907-1.524,1.663-2.01,2.191
				c-0.48,0.531-0.787,0.816-0.787,0.816c0,0,1.708,0.635,3.411,1.203c1.71,0.578,3.457,1.112,3.457,1.113
				c-4.068,2.053-8.314,3.958-12.811,5.238c-2.259,0.616-4.527,1.119-6.843,1.237c-2.255,0.217-4.579-0.11-6.55-0.655
				c3.695-2.082,5.864-5.209,7.619-8.467c1.73-3.293,3-6.848,4.12-10.499c0,0,0.801,1.567,1.563,3.176
				c0.772,1.615,1.478,3.229,1.479,3.229c0,0,0.275-0.253,0.725-0.751c0.452-0.493,1.098-1.196,1.872-2.041
				c0.188-0.219,0.384-0.447,0.587-0.684c0.144-0.168,0.29-0.339,0.439-0.512c0.896-1.021,1.771-2.101,2.658-3.199
				c3.545-4.393,7.056-9.292,10.646-14.42c3.59-5.172,7.3-10.516,11.069-15.947c3.835-5.427,7.816-10.923,12.206-16.191
				c2.176-2.645,4.488-5.21,6.927-7.671c2.416-2.477,5.072-4.775,7.908-6.862c0.729-0.5,1.421-1.048,2.181-1.502
				c0.756-0.458,1.51-0.916,2.263-1.373c1.545-0.812,3.078-1.642,4.656-2.296c1.556-0.729,3.151-1.274,4.72-1.87
				c1.587-0.511,3.157-1.056,4.737-1.462c6.3-1.768,12.49-2.709,18.35-3.34c5.863-0.624,11.411-0.835,16.521-0.893
				c10.225-0.09,18.701,0.519,24.624,1.07c2.961,0.279,5.286,0.552,6.876,0.753c1.61,0.218,2.469,0.335,2.469,0.335L538.634-52.709z
				"/>
		</g>
	</g>
</g>
<circle stroke="#FFFFFF" stroke-width="2" stroke-miterlimit="10" cx="539.111" cy="-55.848" r="10"/>
<circle stroke="#FFFFFF" stroke-width="2" stroke-miterlimit="10" cx="456.51" cy="-47" r="10"/>
<circle stroke="#FFFFFF" stroke-width="2" stroke-miterlimit="10" cx="383.374" cy="-52" r="10"/>
<text transform="matrix(1 0 0 1 417.1111 -75.5)" font-family="'MyriadPro-Regular'" font-size="18">stream-queue</text>
<g>
	<g>
		<g>
			<path fill="#202020" d="M138.541,91.941c0,0,0.053,2.072,0.146,5.699c0.331,3.552,0.577,8.797,2.496,14.398
				c0.981,2.771,2.32,5.62,4.286,8.19c2.021,2.52,4.685,4.699,7.931,6.444c6.476,3.563,15.026,5.324,23.198,9.359
				c4.074,2.005,7.993,4.673,11.215,7.958c3.214,3.275,5.854,7.023,7.666,10.896c0.243,0.479,0.485,0.955,0.726,1.429
				c0.241,0.475,0.402,0.972,0.605,1.453c0.385,0.97,0.766,1.93,1.143,2.88l0.28,0.711l0.219,0.721
				c0.145,0.479,0.289,0.954,0.433,1.428c0.284,0.946,0.566,1.882,0.844,2.804c0.275,0.923,0.431,1.849,0.646,2.753
				c0.046,0.209,0.092,0.415,0.137,0.617c0.071,0.324,0.141,0.639,0.207,0.939c0.256,1.204,0.514,2.205,0.594,2.913
				c0.107,0.705,0.169,1.108,0.169,1.108s1.519-0.984,3.028-2.016c0.765-0.513,1.486-1.039,2.032-1.439
				c0.545-0.403,0.908-0.672,0.908-0.672c-1.583,9.001-4.335,17.12-7.338,24.914c-3.491-7.628-7.315-14.954-11.836-21.12
				c0,0,0.439,0.073,1.098,0.183c0.658,0.112,1.545,0.268,2.396,0.45c1.721,0.353,3.449,0.753,3.449,0.753s-0.058-0.38-0.158-1.045
				c-0.073-0.673-0.316-1.592-0.554-2.711c-0.062-0.279-0.126-0.57-0.192-0.871c-0.042-0.188-0.084-0.379-0.127-0.573
				c-0.199-0.834-0.341-1.705-0.595-2.545c-0.253-0.839-0.51-1.689-0.771-2.55c-0.129-0.431-0.26-0.864-0.391-1.3l-0.196-0.656
				l-0.253-0.632c-0.336-0.846-0.675-1.7-1.018-2.563c-0.18-0.426-0.321-0.878-0.533-1.289c-0.211-0.412-0.423-0.826-0.636-1.242
				c-1.583-3.404-3.82-6.522-6.491-9.256c-2.684-2.733-5.929-4.966-9.53-6.742c-7.185-3.624-15.715-5.338-23.406-9.467
				c-3.827-2.047-7.304-4.842-9.882-8.086c-2.53-3.288-4.162-6.807-5.317-10.085c-2.236-6.614-2.458-12.224-2.824-16.09
				c-0.099-3.864-0.156-6.073-0.156-6.073L138.541,91.941z"/>
		</g>
	</g>
</g>
<g>
	<g>
		<g>
			<polygon fill="#202020" points="-160.899,135.925 -160.714,372.145 -154.116,369.343 -163.887,392.5 -173.661,369.346 
				-167.063,372.146 -167.248,135.935 			"/>
		</g>
	</g>
</g>
<circle stroke="#FFFFFF" stroke-width="2" stroke-miterlimit="10" cx="-163.889" cy="-118" r="10"/>
<circle stroke="#FFFFFF" stroke-width="2" stroke-miterlimit="10" cx="-163.889" cy="-2.57" r="10"/>
<circle stroke="#FFFFFF" stroke-width="2" stroke-miterlimit="10" cx="-164.073" cy="135.93" r="10"/>
<circle stroke="#FFFFFF" stroke-width="2" stroke-miterlimit="10" cx="-163.889" cy="261.341" r="10"/>
<g>
	<g>
		<g>
			<polygon fill="#202020" points="-160.806,-117.998 -160.882,-22.923 -154.282,-25.718 -164.073,-2.57 -173.827,-25.734 
				-167.232,-22.928 -167.156,-118.002 			"/>
		</g>
	</g>
</g>
<text transform="matrix(1 0 0 1 -146.8889 -2.5703)" font-family="'MyriadPro-Regular'" font-size="18">pause()</text>
<text transform="matrix(1 0 0 1 -143.8889 138)" font-family="'MyriadPro-Regular'" font-size="18">resume()</text>
<g>
	<g>
		<line fill="none" stroke="#000000" stroke-width="6" stroke-miterlimit="10" x1="-164.073" y1="-2.57" x2="-164.073" y2="12.43"/>
		
			<line fill="none" stroke="#000000" stroke-width="6" stroke-miterlimit="10" stroke-dasharray="25.0385,8.3462" x1="-164.073" y1="20.776" x2="-164.073" y2="116.757"/>
		
			<line fill="none" stroke="#000000" stroke-width="6" stroke-miterlimit="10" x1="-164.073" y1="120.93" x2="-164.073" y2="135.93"/>
	</g>
</g>
<text transform="matrix(1 0 0 1 439.7351 359.5)"><tspan x="0" y="0" font-family="'MyriadPro-Regular'" font-size="21">STREAM</tspan><tspan x="0" y="25.2" font-family="'MyriadPro-Regular'" font-size="21">MODELS</tspan></text>
</svg>
